<?xml version="1.0" encoding="UTF-8"?>
<svg width="272px" height="214px" viewBox="0 0 272 214" version="1.1" xmlns="http://www.w3.org/2000/svg" xmlns:xlink="http://www.w3.org/1999/xlink">
    <!-- Generator: Sketch 52.2 (67145) - http://www.bohemiancoding.com/sketch -->
    <title>undraw_taking_notes_tjaf (1)</title>
    <desc>Created with Sketch.</desc>
    <defs>
        <linearGradient x1="49.9944184%" y1="100%" x2="49.9944184%" y2="0%" id="linearGradient-1">
            <stop stop-color="#808080" stop-opacity="0.25" offset="0%"></stop>
            <stop stop-color="#808080" stop-opacity="0.12" offset="54%"></stop>
            <stop stop-color="#808080" stop-opacity="0.1" offset="100%"></stop>
        </linearGradient>
        <linearGradient x1="49.9936241%" y1="100.004506%" x2="49.9936241%" y2="1.2807187e-14%" id="linearGradient-2">
            <stop stop-color="#808080" stop-opacity="0.25" offset="0%"></stop>
            <stop stop-color="#808080" stop-opacity="0.12" offset="54%"></stop>
            <stop stop-color="#808080" stop-opacity="0.1" offset="100%"></stop>
        </linearGradient>
        <linearGradient x1="50.0026011%" y1="100%" x2="50.0026011%" y2="-0.0182621717%" id="linearGradient-3">
            <stop stop-color="#808080" stop-opacity="0.25" offset="0%"></stop>
            <stop stop-color="#808080" stop-opacity="0.12" offset="54%"></stop>
            <stop stop-color="#808080" stop-opacity="0.1" offset="100%"></stop>
        </linearGradient>
        <linearGradient x1="49.9975438%" y1="100%" x2="49.9975438%" y2="0%" id="linearGradient-4">
            <stop stop-color="#808080" stop-opacity="0.25" offset="0%"></stop>
            <stop stop-color="#808080" stop-opacity="0.12" offset="54%"></stop>
            <stop stop-color="#808080" stop-opacity="0.1" offset="100%"></stop>
        </linearGradient>
        <linearGradient x1="50.0024608%" y1="99.9961641%" x2="50.0024608%" y2="0.00165012633%" id="linearGradient-5">
            <stop stop-color="#808080" stop-opacity="0.25" offset="0%"></stop>
            <stop stop-color="#808080" stop-opacity="0.12" offset="54%"></stop>
            <stop stop-color="#808080" stop-opacity="0.1" offset="100%"></stop>
        </linearGradient>
        <linearGradient x1="50%" y1="100.025363%" x2="50%" y2="0%" id="linearGradient-6">
            <stop stop-color="#808080" stop-opacity="0.25" offset="0%"></stop>
            <stop stop-color="#808080" stop-opacity="0.12" offset="54%"></stop>
            <stop stop-color="#808080" stop-opacity="0.1" offset="100%"></stop>
        </linearGradient>
        <linearGradient x1="49.9693811%" y1="100.000101%" x2="49.9693811%" y2="-0.0172476432%" id="linearGradient-7">
            <stop stop-color="#808080" stop-opacity="0.25" offset="0%"></stop>
            <stop stop-color="#808080" stop-opacity="0.12" offset="54%"></stop>
            <stop stop-color="#808080" stop-opacity="0.1" offset="100%"></stop>
        </linearGradient>
    </defs>
    <g id="Symbols" stroke="none" stroke-width="1" fill="none" fill-rule="evenodd">
        <g id="Taking-Notes-image">
            <g id="undraw_taking_notes_tjaf-(1)">
                <g id="Group" opacity="0.35" transform="translate(78.975163, 29.552941)" fill="#303C6C">
                    <path d="M46.6788399,1.9957364 L46.6788399,0.110559261 L16.8481037,0.110559261 C15.4761176,0.110559261 16.3129722,2.00707581 16.3129722,2.00707581 L0.105318439,2.00707581 L0.105318439,44.2889059 L71.2664256,44.2889059 L71.2664256,1.9957364 L46.6788399,1.9957364 Z" id="Path" opacity="0.2"></path>
                </g>
                <path d="M220.695425,63.5189542 C220.695425,63.5189542 229.74731,47.5137782 243.389774,42.9031865 C249.120106,41.0052597 254.078691,37.3026432 257.520598,32.3515836 C259.136878,29.9898249 260.532181,27.4847447 261.688889,24.8679739" id="Path" stroke="#EFC69B" stroke-width="2"></path>
                <path d="M269.941166,21.9343448 C268.483929,23.3764377 261.688889,24.8679739 261.688889,24.8679739 C261.688889,24.8679739 263.353917,18.0008646 264.813852,16.5560248 C266.272942,15.1148369 268.603556,15.1505012 270.019425,16.6356832 C271.435294,18.1208653 271.400256,20.4931569 269.941166,21.9343448 Z" id="Path" fill="#303C6C"></path>
                <path d="M265.686303,35.3608278 C263.648095,35.8042222 257.003922,33.0503509 257.003922,33.0503509 C257.003922,33.0503509 262.183564,27.7326345 264.221772,27.2892401 C265.540185,27.003133 266.898018,27.5079771 267.783788,28.6136026 C268.669558,29.719228 268.948696,31.257664 268.516054,32.6493965 C268.083411,34.041129 267.004716,35.0747208 265.686303,35.3608278 Z" id="Path" fill="#303C6C"></path>
                <path d="M250.710961,49.2370577 C248.696979,48.4941408 244.120261,42.4420867 244.120261,42.4420867 C244.120261,42.4420867 251.222943,40.7055941 253.236925,41.4515309 C254.539551,41.9332765 255.502504,43.1203842 255.763049,44.5656823 C256.023594,46.0109803 255.542148,47.4948933 254.500067,48.4584457 C253.457986,49.4219981 252.013587,49.7188033 250.710961,49.2370577 Z" id="Path" fill="#303C6C"></path>
                <path d="M237.418955,56.4273326 C235.377968,56.0627066 230.065359,50.9398621 230.065359,50.9398621 C230.065359,50.9398621 236.597616,47.9565585 238.64135,48.3241979 C239.962303,48.5637409 241.066422,49.5581736 241.537793,50.932903 C242.009165,52.3076323 241.776178,53.8538042 240.926596,54.9889905 C240.077014,56.1241769 238.739909,56.6759159 237.418955,56.4363729 L237.418955,56.4273326 Z" id="Path" fill="#303C6C"></path>
                <path d="M251.14922,26.6843626 C251.14922,28.9227056 255.242554,35.4091503 255.242554,35.4091503 C255.242554,35.4091503 259.344897,28.9256742 259.344897,26.6873313 C259.38525,25.2140138 258.613153,23.8352161 257.328676,23.0868013 C256.0442,22.3383865 254.449918,22.3383865 253.165442,23.0868013 C251.880965,23.8352161 251.108867,25.2140138 251.14922,26.6873313 L251.14922,26.6843626 Z" id="Path" fill="#303C6C"></path>
                <path d="M234.990327,36.9658283 C235.665707,38.9556653 241.534008,43.6078431 241.534008,43.6078431 C241.534008,43.6078431 243.482104,36.7084503 242.806724,34.7186133 C242.425863,33.3709402 241.271125,32.3260826 239.802525,32.0002818 C238.333926,31.674481 236.790059,32.1206681 235.785958,33.1610949 C234.781857,34.2015217 234.480652,35.6671559 235.002334,36.9741309 L234.990327,36.9658283 Z" id="Path" fill="#303C6C"></path>
                <path d="M220.760796,48.4306346 C221.060736,50.6354932 225.99175,56.4915033 225.99175,56.4915033 C225.99175,56.4915033 229.174113,49.5640559 228.874173,47.3591973 C228.769014,45.8611143 227.825957,44.5448978 226.427388,43.9442405 C225.028818,43.3435831 223.406852,43.5581736 222.219155,44.5010009 C221.031458,45.4438282 220.475147,46.9584151 220.775793,48.4306346 L220.760796,48.4306346 Z" id="Path" fill="#303C6C"></path>
                <path d="M269.941166,21.9343448 C268.483929,23.3764377 261.688889,24.8679739 261.688889,24.8679739 C261.688889,24.8679739 263.353917,18.0008646 264.813852,16.5560248 C266.272942,15.1148369 268.603556,15.1505012 270.019425,16.6356832 C271.435294,18.1208653 271.400256,20.4931569 269.941166,21.9343448 Z" id="Path" fill="#8ED081" opacity="0.25"></path>
                <path d="M265.686303,35.3608278 C263.648095,35.8042222 257.003922,33.0503509 257.003922,33.0503509 C257.003922,33.0503509 262.183564,27.7326345 264.221772,27.2892401 C265.540185,27.003133 266.898018,27.5079771 267.783788,28.6136026 C268.669558,29.719228 268.948696,31.257664 268.516054,32.6493965 C268.083411,34.041129 267.004716,35.0747208 265.686303,35.3608278 Z" id="Path" fill="#8ED081" opacity="0.25"></path>
                <path d="M250.710961,49.2370577 C248.696979,48.4941408 244.120261,42.4420867 244.120261,42.4420867 C244.120261,42.4420867 251.222943,40.7055941 253.236925,41.4515309 C254.539551,41.9332765 255.502504,43.1203842 255.763049,44.5656823 C256.023594,46.0109803 255.542148,47.4948933 254.500067,48.4584457 C253.457986,49.4219981 252.013587,49.7188033 250.710961,49.2370577 Z" id="Path" fill="#8ED081" opacity="0.25"></path>
                <path d="M237.418955,56.4273326 C235.377968,56.0627066 230.065359,50.9398621 230.065359,50.9398621 C230.065359,50.9398621 236.597616,47.9565585 238.64135,48.3241979 C239.962303,48.5637409 241.066422,49.5581736 241.537793,50.932903 C242.009165,52.3076323 241.776178,53.8538042 240.926596,54.9889905 C240.077014,56.1241769 238.739909,56.6759159 237.418955,56.4363729 L237.418955,56.4273326 Z" id="Path" fill="#8ED081" opacity="0.25"></path>
                <path d="M251.14922,26.6843626 C251.14922,28.9227056 255.242554,35.4091503 255.242554,35.4091503 C255.242554,35.4091503 259.344897,28.9256742 259.344897,26.6873313 C259.38525,25.2140138 258.613153,23.8352161 257.328676,23.0868013 C256.0442,22.3383865 254.449918,22.3383865 253.165442,23.0868013 C251.880965,23.8352161 251.108867,25.2140138 251.14922,26.6873313 L251.14922,26.6843626 Z" id="Path" fill="#8ED081" opacity="0.25"></path>
                <path d="M234.990327,36.9658283 C235.665707,38.9556653 241.534008,43.6078431 241.534008,43.6078431 C241.534008,43.6078431 243.482104,36.7084503 242.806724,34.7186133 C242.425863,33.3709402 241.271125,32.3260826 239.802525,32.0002818 C238.333926,31.674481 236.790059,32.1206681 235.785958,33.1610949 C234.781857,34.2015217 234.480652,35.6671559 235.002334,36.9741309 L234.990327,36.9658283 Z" id="Path" fill="#8ED081" opacity="0.25"></path>
                <path d="M220.760796,48.4306346 C221.060736,50.6354932 225.99175,56.4915033 225.99175,56.4915033 C225.99175,56.4915033 229.174113,49.5640559 228.874173,47.3591973 C228.769014,45.8611143 227.825957,44.5448978 226.427388,43.9442405 C225.028818,43.3435831 223.406852,43.5581736 222.219155,44.5010009 C221.031458,45.4438282 220.475147,46.9584151 220.775793,48.4306346 L220.760796,48.4306346 Z" id="Path" fill="#000000" opacity="0.25"></path>
                <path d="M221.866667,62.3477124 C221.866667,62.3477124 223.586874,44.1874801 233.835746,34.5295383 C238.165521,30.5075026 241.10089,25.1563389 242.200184,19.2812053 C242.703252,16.4879565 242.953896,13.653294 242.94902,10.8130719" id="Path" stroke="#EFC69B" stroke-width="2"></path>
                <path d="M249.678642,5.64217873 C248.829552,7.64556072 242.560738,11.9843137 242.560738,11.9843137 C242.560738,11.9843137 241.208818,4.72062301 242.057908,2.71724102 C242.606521,1.42328634 243.839712,0.505822414 245.29295,0.310449016 C246.746188,0.115075618 248.198692,0.671474618 249.103317,1.7700559 C250.007942,2.86863718 250.227255,4.3425001 249.678642,5.63645478 L249.678642,5.64217873 Z" id="Path" fill="#8ED081"></path>
                <path d="M250.698647,18.6396444 C248.974916,19.8045473 241.777778,20.1830065 241.777778,20.1830065 C241.777778,20.1830065 244.576043,13.8136182 246.305371,12.6513994 C247.420563,11.8986319 248.86972,11.7737226 250.106958,12.3237235 C251.344196,12.8737245 252.18155,14.0150776 252.303596,15.3178461 C252.425642,16.6206146 251.813839,17.886877 250.698647,18.6396444 Z" id="Path" fill="#8ED081"></path>
                <path d="M243.051091,37.7442847 C241.001823,37.9337471 234.750327,34.3971162 234.750327,34.3971162 C234.750327,34.3971162 240.379675,29.7567919 242.428943,29.5673296 C243.754289,29.4448458 245.038249,30.1109255 245.797169,31.314663 C246.556089,32.5184005 246.674669,34.0769194 246.108243,35.4031407 C245.541817,36.729362 244.376437,37.621801 243.051091,37.7442847 Z" id="Path" fill="#8ED081"></path>
                <path d="M234.253044,50.5445392 C232.223498,51.1182797 225.380392,48.7840616 225.380392,48.7840616 C225.380392,48.7840616 230.316449,43.1402664 232.340427,42.5695455 C234.370786,41.998349 236.443625,43.3205658 236.970242,45.5227995 C237.496859,47.7250332 236.277835,49.9733426 234.247476,50.5445392 L234.253044,50.5445392 Z" id="Path" fill="#8ED081"></path>
                <path d="M233.941391,17.5328997 C234.854689,19.523003 241.238794,23.696732 241.238794,23.696732 C241.238794,23.696732 242.325769,16.3313279 241.412471,14.3412246 C240.502896,12.3472048 238.089729,11.4419802 236.022513,12.319349 C233.955297,13.1967177 233.016844,15.524438 233.926419,17.5184577 L233.941391,17.5328997 Z" id="Path" fill="#8ED081"></path>
                <path d="M223.999747,32.7215598 C225.418117,34.3913603 232.407843,36.5803922 232.407843,36.5803922 C232.407843,36.5803922 231.224923,29.0810405 229.815063,27.4082898 C228.405044,25.7382184 225.960195,25.5731135 224.35434,27.0395178 C222.748485,28.505922 222.589729,31.048538 223.999747,32.7186096 L223.999747,32.7215598 Z" id="Path" fill="#8ED081"></path>
                <path d="M215.372474,49.2406329 C216.507964,51.001071 223.037032,54.1490196 223.037032,54.1490196 C223.037032,54.1490196 223.108,47.0853301 221.97251,45.324892 C220.831493,43.6131949 218.483418,43.0963199 216.68731,44.1614762 C214.891202,45.2266324 214.305794,47.4831681 215.369635,49.2406329 L215.372474,49.2406329 Z" id="Path" fill="#303C6C"></path>
                <path d="M26.269281,136.135948 C26.269281,136.135948 15.2452417,122.360052 15.9377775,108.535699 C16.2671153,102.740248 14.7238223,96.9933789 11.5394684,92.1574046 C10.0094386,89.8739667 8.27508497,87.7367423 6.35816993,85.772549" id="Path" stroke="#EFC69B" stroke-width="2"></path>
                <path d="M7.26854536,77.6473336 C8.01388041,79.6470495 6.92515886,86.9437908 6.92515886,86.9437908 C6.92515886,86.9437908 1.51615595,82.6481047 0.7708209,80.6483888 C0.0269337101,78.649811 0.879650938,76.3584977 2.67541814,75.5305972 C4.47118533,74.7026968 6.529982,75.6517183 7.27386919,77.6502961 L7.26854536,77.6473336 Z" id="Path" fill="#8ED081"></path>
                <path d="M16.831995,85.5550878 C16.4804889,87.5862659 11.9987864,92.8 11.9987864,92.8 C11.9987864,92.8 9.54623256,86.2255463 9.90839034,84.2000262 C10.121325,82.8708848 10.9912091,81.7663883 12.1851511,81.309211 C13.3790931,80.8520337 14.7122508,81.1129543 15.6744446,81.9921223 C16.6366385,82.8712903 17.0789049,84.232596 16.831995,85.5550878 Z" id="Path" fill="#8ED081"></path>
                <path d="M24.2552843,103.326671 C22.833591,104.836046 15.7281046,106.854902 15.7281046,106.854902 C15.7281046,106.854902 16.8606905,100.133554 18.2823839,98.62418 C19.7274331,97.2143135 22.1319847,97.0977541 23.7320478,98.3600103 C25.3321109,99.6222666 25.5577179,101.813703 24.2433624,103.326671 L24.2552843,103.326671 Z" id="Path" fill="#8ED081"></path>
                <path d="M26.9063216,119.476302 C25.7985503,121.235941 19.2462009,124.423529 19.2462009,124.423529 C19.2462009,124.423529 19.1195143,117.396218 20.2302318,115.647822 C21.3504185,113.915427 23.7229485,113.36529 25.5515559,114.413925 C27.3801633,115.462561 27.9841901,117.719638 26.9063216,119.476302 Z" id="Path" fill="#303C6C"></path>
                <path d="M5.23009,96.0831683 C7.250147,96.8032138 14.5568627,95.6067069 14.5568627,95.6067069 C14.5568627,95.6067069 10.153793,90.2264408 8.13671104,89.5037185 C6.13441921,88.8429596 3.91148732,89.7372344 3.12372535,91.5204185 C2.33596337,93.3036025 3.26999858,95.3268842 5.23009,96.0831683 Z" id="Path" fill="#8ED081"></path>
                <path d="M7.46473312,113.877495 C9.51229419,114.021095 15.7281046,110.933683 15.7281046,110.933683 C15.7281046,110.933683 10.0635606,107.008602 8.01599957,106.865001 C6.69111871,106.769994 5.41327073,107.350492 4.66380863,108.387825 C3.91434653,109.425158 3.80713143,110.761732 4.38255023,111.894072 C4.95796903,113.026412 6.12860192,113.782488 7.45348279,113.877495 L7.46473312,113.877495 Z" id="Path" fill="#8ED081"></path>
                <path d="M12.7469602,130.209636 C14.776427,130.682817 21.5843137,128.605634 21.5843137,128.605634 C21.5843137,128.605634 16.6081069,123.823033 14.57864,123.357872 C12.5475068,122.886148 10.4909125,124.039356 9.98510804,125.933633 C9.47930362,127.82791 10.7158269,129.745932 12.7469602,130.217656 L12.7469602,130.209636 Z" id="Path" fill="#8ED081"></path>
                <path d="M212.656506,25.7169633 L212.414884,25.7169633 C212.794576,25.2889719 212.990176,24.8609805 212.958534,24.4814948 L210.772426,22.3130051 L211.606599,20.4583756 L208.796298,20.4583756 L209.316937,19.0117647 L207.651467,19.0117647 L189.224871,25.1006557 C189.224871,25.1006557 189.204736,25.3545973 189.224871,25.7169633 L177.359477,25.7169633 L177.359477,78.745098 L228.894118,78.745098 L228.894118,25.7169633 L212.656506,25.7169633 Z" id="Path" fill="url(#linearGradient-1)"></path>
                <rect id="Rectangle" fill="#F6F7F9" x="177.359477" y="26.0392157" width="50.3633987" height="52.7058824"></rect>
                <path d="M212.496732,26.0392157 C210.057776,29.5779923 193.766952,34.2379085 193.766952,34.2379085 L193.869062,30.5496466 L190.855376,30.5496466 C191.02507,29.8200401 190.684957,29.0677408 190.020996,28.7040783 C189.145773,28.22975 189.061168,26.6917764 189.072838,26.0392157 L212.496732,26.0392157 Z" id="Path" fill="#000000" opacity="0.1"></path>
                <path d="M207.257108,20.1968865 L189.086862,26.0264923 C189.086862,26.0264923 188.879498,28.3028146 190.008479,28.8941032 C190.662445,29.2465921 190.997684,29.9719339 190.832173,30.676297 L193.807267,30.676297 L193.706465,34.2379085 C193.706465,34.2379085 212.801207,28.8941032 212.493042,25.4324278 L210.338763,23.3532017 L211.159578,21.5710079 L208.386088,21.5710079 L208.901617,20.1830065 L207.257108,20.1968865 Z" id="Path" fill="#F2E9E4"></path>
                <g id="Group" opacity="0.35" transform="translate(186.729412, 43.607843)" fill="#303C6C">
                    <rect id="Rectangle" opacity="0.2" x="0.267001677" y="0.00292810458" width="32.278181" height="1"></rect>
                </g>
                <g id="Group" opacity="0.35" transform="translate(186.729412, 48.292810)" fill="#303C6C">
                    <rect id="Rectangle" opacity="0.2" x="0.267001677" y="0.13469281" width="32.278181" height="1"></rect>
                </g>
                <g id="Group" opacity="0.35" transform="translate(186.729412, 52.977778)" fill="#303C6C">
                    <rect id="Rectangle" opacity="0.2" x="0.267001677" y="0.210823529" width="32.278181" height="1"></rect>
                </g>
                <g id="Group" opacity="0.35" transform="translate(186.729412, 57.662745)" fill="#303C6C">
                    <rect id="Rectangle" opacity="0.2" x="0.267001677" y="0.0995555556" width="32.278181" height="1"></rect>
                </g>
                <g id="Group" opacity="0.35" transform="translate(186.729412, 62.347712)" fill="#303C6C">
                    <rect id="Rectangle" opacity="0.2" x="0.267001677" y="0.228392157" width="32.278181" height="1"></rect>
                </g>
                <g id="Group" opacity="0.35" transform="translate(186.729412, 67.032680)" fill="#303C6C">
                    <rect id="Rectangle" opacity="0.2" x="0.267001677" y="0.0673464052" width="32.278181" height="1"></rect>
                </g>
                <path d="M41.1457848,22.1755743 L41.0265995,22.1755743 C41.9233269,19.8670795 42.7519484,17.6155845 42.7150577,17.1852354 C42.6356008,16.3302374 40.9301162,18.1884332 40.8506593,17.7238842 C40.7712025,17.2593353 40.8506593,15.4980392 40.075955,15.4980392 C39.3012507,15.4980392 38.8330228,16.4128872 38.3733081,16.4128872 C37.9135935,16.4128872 36.0435196,16.1050879 36.0435196,16.1050879 L33.6626518,22.1755743 L15.7281046,22.1755743 L15.7281046,78.745098 L60.2352941,78.745098 L60.2352941,22.1755743 L41.1457848,22.1755743 Z" id="Path" fill="url(#linearGradient-2)"></path>
                <rect id="Rectangle" fill="#EFC69B" x="16.8993464" y="22.5254902" width="43.3359477" height="56.2196078"></rect>
                <path d="M41.4954248,22.5254902 C40.5584314,24.7875129 39.5025007,27.1708599 39.2617252,27.7397357 C38.794679,28.8181733 38.4871827,28.2439053 37.9418119,28.1010123 C37.396441,27.9581193 36.7031239,28.2439053 36.3927267,28.1010123 C36.0823295,27.9581193 34.2605589,28.1010123 34.2605589,28.1010123 C34.2809208,27.8362341 34.2809208,27.5704428 34.2605589,27.3056646 C34.2199462,27.0198787 32.1254902,27.3056646 32.1254902,27.3056646 L34.1213153,22.5254902 L41.4954248,22.5254902 Z" id="Path" fill="#000000" opacity="0.1"></path>
                <path d="M36.238007,16.1159106 L32.1254902,27.2081738 C32.1254902,27.2081738 34.1440063,26.8933536 34.1803507,27.2081738 C34.2014575,27.496086 34.2014575,27.7852816 34.1803507,28.0731938 C34.1803507,28.0731938 35.938864,27.9143125 36.238007,28.0731938 C36.53715,28.232075 37.2081248,27.9143125 37.7309261,28.0731938 C38.2537274,28.232075 38.5528703,28.8587731 39.0029826,27.6789329 C39.4530949,26.4990928 42.7408718,18.0813302 42.6653871,17.2163102 C42.5899025,16.3512902 40.946014,18.2402114 40.8705294,17.76651 C40.7950447,17.2928086 40.8705294,15.4980392 40.1240698,15.4980392 C39.3776103,15.4980392 38.927498,16.4307308 38.4801814,16.4307308 C38.0328648,16.4307308 36.238007,16.1159106 36.238007,16.1159106 Z" id="Path" fill="#F2E9E4"></path>
                <g id="Group" opacity="0.35" transform="translate(22.755556, 36.580392)" fill="#303C6C">
                    <rect id="Rectangle" opacity="0.2" x="0.00847058824" y="0.0117124183" width="31.4032941" height="1"></rect>
                </g>
                <g id="Group" opacity="0.35" transform="translate(22.755556, 40.094118)" fill="#303C6C">
                    <rect id="Rectangle" opacity="0.2" x="0.00847058824" y="0.237176471" width="31.4032941" height="1"></rect>
                </g>
                <g id="Group" opacity="0.35" transform="translate(22.755556, 43.607843)" fill="#303C6C">
                    <rect id="Rectangle" opacity="0.2" x="0.00847058824" y="0.166901961" width="31.4032941" height="1"></rect>
                </g>
                <g id="Group" opacity="0.35" transform="translate(22.755556, 47.121569)" fill="#303C6C">
                    <rect id="Rectangle" opacity="0.2" x="0.00847058824" y="0.0995555556" width="31.4032941" height="1"></rect>
                </g>
                <g id="Group" opacity="0.35" transform="translate(22.755556, 50.635294)" fill="#303C6C">
                    <rect id="Rectangle" opacity="0.2" x="0.00847058824" y="0.0292810458" width="31.4032941" height="1"></rect>
                </g>
                <g id="Group" opacity="0.35" transform="translate(22.755556, 54.149020)" fill="#303C6C">
                    <rect id="Rectangle" opacity="0.2" x="0.00847058824" y="0.251816993" width="31.4032941" height="1"></rect>
                </g>
                <path d="M206.431475,105.768234 L206.311201,105.768234 C207.422305,102.902052 208.4475,100.101792 208.398817,99.5772803 C208.304316,98.5253915 206.190926,100.821203 206.10788,100.247967 C206.024833,99.6747305 206.10788,97.4849673 205.14855,97.4849673 C204.18922,97.4849673 203.613622,98.6314402 203.038024,98.6314402 C202.462425,98.6314402 200.15717,98.2473718 200.15717,98.2473718 L197.196133,105.768234 L175.016993,105.768234 L175.016993,175.95817 L230.065359,175.95817 L230.065359,105.768234 L206.431475,105.768234 Z" id="Path" fill="url(#linearGradient-3)"></path>
                <rect id="Rectangle" fill="#EFC69B" x="176.188235" y="105.68366" width="53.8771242" height="69.103268"></rect>
                <path d="M206.640523,106.854902 C205.478132,109.573981 204.17413,112.420268 203.870256,113.104013 C203.280209,114.413199 202.89963,113.713553 202.218126,113.541292 C201.536623,113.36903 200.663354,113.713553 200.273924,113.541292 C199.884493,113.36903 197.601014,113.541292 197.601014,113.541292 C197.626515,113.22103 197.626515,112.89954 197.601014,112.579278 C197.55086,112.232106 194.928105,112.579278 194.928105,112.579278 L197.41515,106.854902 L206.640523,106.854902 Z" id="Path" fill="#000000" opacity="0.1"></path>
                <path d="M199.95338,98.2159004 L194.928105,111.324719 C194.928105,111.324719 197.393596,110.952197 197.440742,111.324719 C197.464724,111.66482 197.464724,112.006232 197.440742,112.346332 C197.440742,112.346332 199.5873,112.162893 199.95338,112.346332 C200.319459,112.529771 201.140365,112.162893 201.781005,112.346332 C202.421644,112.529771 202.78495,113.277637 203.33407,111.883502 C203.883189,110.489367 207.901746,100.538518 207.810226,99.5169048 C207.718706,98.4952918 205.708041,100.724779 205.616521,100.168818 C205.525001,99.6128574 205.616521,97.4849673 204.704095,97.4849673 C203.791669,97.4849673 203.24255,98.5884223 202.693431,98.5884223 C202.144311,98.5884223 199.95338,98.2159004 199.95338,98.2159004 Z" id="Path" fill="#F2E9E4"></path>
                <g id="Group" opacity="0.35" transform="translate(186.729412, 125.594771)" fill="#303C6C">
                    <rect id="Rectangle" opacity="0.2" x="0.267001677" y="0.156165577" width="32.278181" height="2.06398838"></rect>
                </g>
                <g id="Group" opacity="0.35" transform="translate(186.729412, 139.649673)" fill="#303C6C">
                    <rect id="Rectangle" opacity="0.2" x="0.267001677" y="0.0286303558" width="32.278181" height="2.06398838"></rect>
                </g>
                <g id="Group" opacity="0.35" transform="translate(186.729412, 154.875817)" fill="#303C6C">
                    <rect id="Rectangle" opacity="0.2" x="0.267001677" y="0.163973856" width="32.278181" height="2.06398838"></rect>
                </g>
                <polygon id="Path" fill="url(#linearGradient-4)" points="51.431102 108.26985 51.431102 99.827451 39.4896941 99.827451 39.4896941 108.26985 14.5568627 108.26985 14.5568627 174.786928 73.1189542 174.786928 73.1189542 108.26985"></polygon>
                <rect id="Rectangle" fill="#F6F7F9" x="14.5568627" y="108.026144" width="57.3908497" height="65.5895425"></rect>
                <rect id="Rectangle" fill="#000000" opacity="0.1" x="39.1529412" y="108.026144" width="11.7124183" height="9.36993464"></rect>
                <rect id="Rectangle" fill="#F2E9E4" x="39.1529412" y="99.827451" width="11.7124183" height="16.3973856"></rect>
                <g id="Group" opacity="0.35" transform="translate(27.440523, 124.423529)" fill="#303C6C">
                    <rect id="Rectangle" opacity="0.2" x="0.278610446" y="0.166576616" width="32.278181" height="2.06398838"></rect>
                </g>
                <g id="Group" opacity="0.35" transform="translate(27.440523, 129.108497)" fill="#303C6C">
                    <rect id="Rectangle" opacity="0.2" x="0.278610446" y="0.106713145" width="32.278181" height="2.06398838"></rect>
                </g>
                <g id="Group" opacity="0.35" transform="translate(27.440523, 132.622222)" fill="#303C6C">
                    <rect id="Rectangle" opacity="0.2" x="0.278610446" y="0.0494524328" width="32.278181" height="2.06398838"></rect>
                </g>
                <g id="Group" opacity="0.35" transform="translate(27.440523, 137.307190)" fill="#303C6C">
                    <rect id="Rectangle" opacity="0.2" x="0.278610446" y="0.249864924" width="32.278181" height="2.06398838"></rect>
                </g>
                <g id="Group" opacity="0.35" transform="translate(49.694118, 141.992157)" fill="#303C6C">
                    <rect id="Rectangle" opacity="0.2" x="0.126947502" y="0.14617098" width="8.99815981" height="6.76321882"></rect>
                </g>
                <g id="Group" opacity="0.35" transform="translate(27.440523, 151.362092)" fill="#303C6C">
                    <rect id="Rectangle" opacity="0.2" x="0.290165718" y="0.078707451" width="8.99815981" height="6.76321882"></rect>
                </g>
                <path d="M132.55416,107.56429 L132.475074,107.56429 C133.390209,103.978109 134.079385,101.122185 134.079385,101.122185 L130.175937,102.961977 C130.175937,102.961977 127.405111,99.2823916 126.37982,99.8965994 C125.35453,100.510807 123.10341,102.042081 123.10341,102.042081 L120.115098,100.507977 L118.971178,107.56429 L95.372549,107.56429 L95.372549,158.481267 L96.8893011,159.389841 C98.140551,158.9398 100.199606,158.175578 100.199606,158.175578 L99.2534008,160.807897 L99.891736,161.187178 L100.967867,160.210672 L101.366121,162.075939 L102.645616,162.842991 L104.665127,161.555136 L104.100229,163.723261 L105.995463,164.855442 L111.506046,162.780721 L109.845245,167.162259 L110.938324,167.818923 L113.43235,167.380204 C113.43235,167.380204 113.31937,168.254813 113.248758,169.203014 L115.751258,170.703153 C116.776548,170.304059 117.742524,169.910626 117.742524,169.910626 C117.742524,169.910626 117.643667,170.867319 117.598475,171.807028 L119.276223,172.814669 C120.60091,172.039125 122.287132,170.983367 122.287132,170.983367 L120.874886,173.615686 L152.763399,173.615686 L152.763399,107.56429 L132.55416,107.56429 Z" id="Path" fill="url(#linearGradient-5)"></path>
                <path d="M152.763399,108.026144 L152.763399,173.615686 L120.870953,173.615686 L122.293771,171.003839 C122.293771,171.003839 120.608855,172.049148 119.283963,172.821024 L117.607687,171.818439 C117.65377,170.887061 117.754577,169.935745 117.754577,169.935745 C117.754577,169.935745 116.78683,170.325955 115.761479,170.721862 L113.258586,169.232227 C113.330591,168.292304 113.440039,167.423587 113.440039,167.423587 L110.948666,167.859369 L109.857071,167.20712 L111.516066,162.854991 L106.006245,164.917125 L104.108193,163.777825 L104.661192,161.624546 L102.645052,162.903411 L101.366244,162.142928 L100.968776,160.291564 L99.8915816,161.265666 L99.2521774,160.886849 L100.199763,158.275002 C100.199763,158.275002 98.1404205,159.032637 96.8875338,159.479813 L95.372549,158.579765 L95.372549,108.026144 L152.763399,108.026144 Z" id="Path" fill="#F6F7F9"></path>
                <g id="Group" opacity="0.35" transform="translate(107.084967, 129.108497)" fill="#303C6C">
                    <rect id="Rectangle" opacity="0.2" x="0.272806062" y="0.106713145" width="32.278181" height="2.06398838"></rect>
                </g>
                <g id="Group" opacity="0.35" transform="translate(107.084967, 134.964706)" fill="#303C6C">
                    <rect id="Rectangle" opacity="0.2" x="0.272806062" y="0.0312331155" width="32.278181" height="2.06398838"></rect>
                </g>
                <g id="Group" opacity="0.35" transform="translate(107.084967, 141.992157)" fill="#303C6C">
                    <rect id="Rectangle" opacity="0.2" x="0.272806062" y="0.213426289" width="32.278181" height="2.06398838"></rect>
                </g>
                <g id="Group" opacity="0.35" transform="translate(107.084967, 149.019608)" fill="#303C6C">
                    <rect id="Rectangle" opacity="0.2" x="0.27524183" y="0.13794626" width="6.52381699" height="2.06398838"></rect>
                </g>
                <path d="M131.681046,108.028927 C130.169309,113.979682 127.965856,122.223899 127.391284,122.079166 C126.498746,121.837017 125.104155,120.130837 125.104155,120.130837 C125.104155,120.130837 121.824077,123.206414 120.234243,121.619917 C118.64441,120.03342 116.454902,121.121701 116.454902,121.121701 L118.57468,108.026144 L131.681046,108.028927 Z" id="Path" fill="#000000" opacity="0.1"></path>
                <path d="M119.802006,100.520968 L116.454902,121.08242 C116.454902,121.08242 118.754752,119.940441 120.426837,121.603885 C122.098923,123.267329 125.551632,120.03949 125.551632,120.03949 C125.551632,120.03949 127.018373,121.822376 127.957087,122.078738 C128.895802,122.335101 134.023529,101.144395 134.023529,101.144395 L130.04866,103.014678 C130.04866,103.014678 127.22665,99.274113 126.179397,99.8975405 C125.132144,100.520968 122.844027,102.079536 122.844027,102.079536 L119.802006,100.520968 Z" id="Path" fill="#F2E9E4"></path>
                <path d="M146.418702,13.894869 L146.418702,11.9843137 L115.971782,11.9843137 C114.574529,11.9843137 115.429522,13.894869 115.429522,13.894869 L98.8862745,13.894869 L98.8862745,56.4915033 L171.503268,56.4915033 L171.503268,13.8779365 L146.418702,13.894869 Z" id="Path" fill="url(#linearGradient-6)"></path>
                <rect id="Rectangle" fill="#F6F7F9" x="100.057516" y="14.3267974" width="71.4457516" height="42.1647059"></rect>
                <path d="M146.321114,21.3542484 L117.567915,21.3542484 C117.567915,21.3542484 117.257743,18.0326008 118.266526,17.4173739 C119.275308,16.802147 115.396713,14.635855 115.396713,14.635855 C115.35377,14.534822 115.316036,14.4316682 115.28366,14.3267974 L146.321114,14.3267974 L146.321114,15.3319568 C146.321114,15.3319568 150.275078,18.8066891 146.321114,21.3542484 Z" id="Path" fill="#000000" opacity="0.1"></path>
                <path d="M116.080068,11.9843137 L146.328839,11.9843137 L146.328839,14.473496 C146.328839,14.473496 150.265422,17.7595452 146.328839,20.1830065 L117.702033,20.1830065 C117.702033,20.1830065 117.393224,17.033876 118.397572,16.4506023 C119.401921,15.8673286 115.540375,13.8135478 115.540375,13.8135478 C115.540375,13.8135478 114.691874,11.9843137 116.080068,11.9843137 Z" id="Path" fill="#F2E9E4"></path>
                <g id="Group" opacity="0.35" transform="translate(108.256209, 27.210458)" fill="#303C6C">
                    <rect id="Rectangle" opacity="0.2" x="0.189987754" y="0.224878431" width="53.4744636" height="1"></rect>
                </g>
                <g id="Group" opacity="0.35" transform="translate(108.256209, 30.724183)" fill="#303C6C">
                    <rect id="Rectangle" opacity="0.2" x="0.192741199" y="0.210823529" width="32.4064121" height="1"></rect>
                </g>
                <g id="Group" opacity="0.35" transform="translate(108.256209, 34.237908)" fill="#303C6C">
                    <rect id="Rectangle" opacity="0.2" x="0.189987754" y="0.143477124" width="53.4744636" height="1"></rect>
                </g>
                <g id="Group" opacity="0.35" transform="translate(108.256209, 36.580392)" fill="#303C6C">
                    <rect id="Rectangle" opacity="0.2" x="0.189987754" y="0.0732026144" width="53.4744636" height="1"></rect>
                </g>
                <g id="Group" opacity="0.35" transform="translate(108.256209, 40.094118)" fill="#303C6C">
                    <rect id="Rectangle" opacity="0.2" x="0.189987754" y="0.00292810458" width="53.4744636" height="1"></rect>
                </g>
                <path d="M184.366879,209.489622 C183.853495,207.325061 183.538007,205.427519 183.538007,205.427519 C183.538007,205.427519 183.655598,203.072635 182.588677,201.305762 L182.588677,200.717751 L182.588677,196.368744 C182.891156,195.581172 183.261549,194.820862 183.695751,194.096238 C184.487338,192.727054 183.695751,187.716179 183.695751,187.716179 C183.695751,187.716179 180.764585,180.651528 181.478734,176.171851 C182.192883,171.692175 175.455791,156.273225 175.455791,156.273225 C175.497206,154.785522 175.709862,153.307357 176.089634,151.867405 C176.15956,151.564816 176.188495,151.254353 176.175676,150.944199 C176.175676,150.907271 176.175676,150.870343 176.175676,150.830574 L176.175676,150.867502 C176.075293,147.913245 173.717741,142.374013 173.717741,142.374013 L174.033229,131.815384 C174.033229,131.815384 175.538965,125.588719 173.083898,117.234421 C172.223478,114.317092 171.675677,111.984933 171.32864,110.183972 C171.288487,109.979447 171.251202,109.783443 171.216786,109.595961 C176.27319,108.831831 180.13361,108.19553 180.13361,108.19553 C180.13361,108.19553 177.199576,96.0376254 175.220609,93.9128328 C173.241642,91.7880401 171.6556,85.1068739 171.6556,85.1068739 C171.6556,85.1068739 170.623095,76.525325 172.289443,74.0284096 C173.955791,71.5314941 174.188104,67.1910086 174.188104,67.1910086 C174.188104,67.1910086 177.991163,64.4583207 178.467263,63.2425303 C178.943362,62.0267398 179.734949,59.2940519 179.734949,57.8453297 C179.734949,56.3966074 179.258849,55.1098012 179.419461,54.3513525 C179.580073,53.5929037 178.309519,50.7068217 178.943362,49.3376372 C179.108038,48.9172335 179.193579,48.4705124 179.195752,48.019584 C179.197345,48.0063747 179.197345,47.9930244 179.195752,47.9798151 C179.195752,47.9798151 179.195752,47.9798151 179.195752,47.965612 C179.199975,46.7693552 179.087599,45.5754878 178.860188,44.4006189 C178.860188,44.4006189 177.139347,42.8979247 175.10015,42.4121766 L175.016976,42.085504 L174.801871,41.2333144 C174.680764,41.1527914 174.555342,41.0788266 174.426154,41.0117451 L174.426154,40.7021162 L174.391737,39.469282 L174.988296,36.6939846 C176.155599,31.8649104 169.659424,31.1519118 169.659424,31.1519118 C169.270017,30.4080319 168.614487,29.8347399 167.820993,29.5441142 C166.513153,29.0867724 167.603019,36.799088 168.213918,37.2905173 C168.675677,37.6626401 170.095371,40.0800178 170.777971,41.267402 L170.889826,41.4634056 C170.786135,41.5589682 170.690234,41.6625003 170.603019,41.7730344 L170.849673,43.4461666 L170.886958,43.7018235 C170.457138,44.2327455 170.108299,44.8232581 169.851585,45.4544934 C169.851585,45.4544934 171.041833,46.7441403 170.803784,48.1871813 C170.565734,49.6302223 171.168028,51.4283422 171.196709,51.5277644 C171.125007,51.4482267 170.2904,50.550587 169.455792,50.7693156 C168.621184,50.9880443 166.300916,51.6811585 166.300916,51.6811585 C166.300916,51.6811585 164.557131,51.9851061 164.717743,52.3657508 C164.878354,52.7463954 163.527494,54.416687 163.527494,54.416687 L158.843939,50.0193888 C158.79805,49.8887198 158.75216,49.7580507 158.709139,49.6217004 C158.513886,48.993485 158.377553,48.3487713 158.301874,47.6957519 C158.811931,47.5751934 159.312329,47.4175853 159.799005,47.224207 C160.291549,47.0579033 160.736271,46.7762767 161.095372,46.4032644 C161.565735,45.835138 161.668986,45.0937331 161.849674,44.4148221 C162.219655,43.0626813 163.016978,41.8582534 163.587724,40.5771284 C164.551782,38.4129842 164.876004,36.0223155 164.522714,33.6829148 C164.448837,32.9633345 164.201986,32.2717531 163.802829,31.6660662 C163.039923,30.6235543 161.651778,30.2003001 160.647954,29.367995 C159.64413,28.5356898 158.99021,27.268768 157.814302,26.643829 C156.753117,26.0757026 155.45675,26.1467184 154.260765,26.3398814 C151.916867,26.7220756 149.665306,27.5331679 147.621187,28.7316934 C146.938587,29.1322225 146.187153,29.583883 145.401302,29.4532139 C144.730174,29.3339074 144.236866,28.7998686 143.803788,28.2913955 C143.809151,28.2692383 143.815856,28.2474207 143.823864,28.226061 L143.772239,28.1664077 C143.276227,29.2568683 143.027563,30.4417542 143.04375,31.6376599 C143.04375,31.8223009 143.04375,32.006942 143.066694,32.2057862 C143.066694,32.2711208 143.066694,32.3364553 143.066694,32.4017898 C143.070936,32.4547318 143.070936,32.5079233 143.066694,32.5608652 C143.066738,32.6434849 143.055154,32.7257074 143.032278,32.8051596 C142.932678,33.0429091 142.783087,33.2569179 142.593463,33.4329392 C142.450427,33.5921876 142.322721,33.7643199 142.21201,33.9470936 C142.232086,33.8845997 142.252163,33.8221058 142.275108,33.7596119 C141.976265,34.1905689 141.808086,34.6971803 141.790404,35.2196967 C141.764825,35.6013732 141.891495,35.9777493 142.143176,36.2678898 C142.376633,36.4949247 142.632177,36.6985465 142.906083,36.8757851 C142.24461,40.5256762 143.950348,44.1970476 147.179504,46.0737511 C147.233998,46.2044202 147.285623,46.3379299 147.340116,46.4714396 C147.936675,48.0337871 148.386961,49.8517915 148.200537,51.530605 C148.183328,51.6555928 148.16612,51.77774 148.143175,51.8998871 C148.082946,51.962381 148.025585,52.0277156 147.973959,52.0930501 C147.973959,52.0930501 140.230175,52.1669065 138.420424,50.5335432 C136.610672,48.9001799 133.831514,54.5104278 133.831514,54.5104278 C133.831514,54.5104278 131.058092,55.0444666 130.504555,54.5104278 C129.951018,53.976389 126.701496,54.4365714 126.701496,54.4365714 C126.701496,54.4365714 124.719661,52.5361887 121.868801,52.6895828 C120.785948,51.8745065 119.591337,51.2164387 118.321,50.7352281 L118.23209,50.7039811 C117.674272,50.5044119 117.078743,50.4297128 116.488305,50.4852525 C116.488305,50.4852525 112.685246,47.3605574 111.578172,45.7016283 C110.471097,44.0426993 105.185247,37.833078 105.162303,37.8046717 L105.142226,37.5206085 L105.081997,36.6172876 C104.925414,36.6417215 104.767266,36.6550119 104.608765,36.6570564 L104.502647,36.3445869 C104.199237,35.4633295 103.82321,34.6082616 103.378364,33.7880182 C103.378364,33.7880182 103.378364,32.6517654 103.713928,32.3677023 C104.049492,32.0836391 103.576261,27.9050696 103.576261,27.9050696 C103.576261,27.9050696 100.148919,19.9683441 97.0800859,25.8939022 C97.0800859,25.8939022 91.2779835,29.7259146 96.1479637,34.1885473 C96.1479637,34.1885473 98.089646,35.1231152 98.3649805,35.8616795 C98.5456688,36.3417463 99.2053246,37.6796839 99.6498752,38.5716423 C99.7244449,38.7193552 99.7904105,38.8557055 99.8477719,38.9693308 L99.7932786,39.0147809 L99.8649803,39.7590264 L99.893661,40.0430896 C98.9758791,40.5600846 98.3535082,41.0685577 98.5055159,41.4634056 C98.7765999,42.1212007 98.9625884,42.8103152 99.0590531,43.5143418 C99.0590531,43.5143418 105.793278,51.8686402 106.66517,55.4449957 C106.66517,55.4449957 124.734001,66.0774809 130.670903,66.8387702 L129.641266,72.1535925 C129.641266,72.1535925 129.322911,75.3436221 129.403217,76.4827155 C129.483523,77.6218089 128.689068,82.7889183 128.689068,82.7889183 C128.689068,82.7889183 127.659431,90.3819273 126.787538,91.4443237 C125.915645,92.50672 126.076257,97.0659342 126.076257,97.0659342 C125.866457,99.2479094 125.46825,101.408064 124.886009,103.52269 C124.025588,106.408772 124.650827,109.976606 124.650827,109.976606 C124.650827,109.976606 121.639355,116.814007 128.849679,112.180936 C128.849679,112.180936 132.388876,111.962208 136.464401,111.825857 C136.464401,111.956527 136.464401,112.090036 136.464401,112.226387 C136.464401,112.746222 136.447193,113.308667 136.441456,113.902359 C136.386963,117.81675 136.364019,123.21111 136.541839,127.293098 C136.857326,134.508303 139.077211,148.78816 139.077211,148.78816 L139.077211,155.960755 C138.933987,156.635082 138.8638,157.322617 138.867842,158.011691 C138.819023,160.540305 139.496357,163.030642 140.820997,165.192809 L141.311437,169.928142 C141.311437,169.928142 142.61354,173.081244 142.639352,174.964583 C142.63316,175.118349 142.613972,175.271331 142.581991,175.421924 C142.533456,175.663127 142.512293,175.908948 142.518893,176.154807 C142.444324,178.327891 143.766503,183.523406 143.766503,183.523406 C143.766503,183.523406 143.846809,188.764372 144.626924,189.06832 C145.303788,189.326817 143.723482,192.087912 143.250251,192.880448 C143.250251,192.829316 143.230174,192.781026 143.22157,192.729894 C143.161341,192.832157 143.124056,192.88897 143.124056,192.88897 C142.961212,193.311678 142.877625,193.760272 142.877402,194.212704 C142.785784,194.943549 143.127458,195.66128 143.755031,196.056274 C145.260767,196.968117 146.069562,197.726566 144.793272,198.044717 C144.323098,198.115726 143.856904,198.210538 143.396522,198.32878 C143.373578,198.269127 143.350633,198.209473 143.330557,198.152661 C142.963741,198.302675 142.748102,198.681714 142.808568,199.070185 C142.774151,199.45367 142.903215,200.013275 143.2818,200.84842 C144.549486,203.657805 145.427115,204.723042 145.427115,204.723042 L146.035145,204.654867 C145.942471,204.883185 145.824135,205.100442 145.682373,205.302531 C145.450861,205.632043 145.143042,205.901853 144.784667,206.089386 C144.454752,206.286498 144.086085,206.41144 143.703406,206.455828 C142.833686,206.484594 142.01728,206.878049 141.457708,207.538108 C140.668989,208.549373 140.172813,209.92992 141.744515,211.14003 L147.411818,213.077341 C147.411818,213.077341 157.163251,214.330059 156.638394,212.165498 C156.113537,210.000936 155.809522,208.103394 155.809522,208.103394 C155.809522,208.103394 155.918509,205.989964 155.017935,204.26286 C154.91717,204.065526 154.802148,203.875657 154.673767,203.694733 L155.017935,203.654965 C155.017935,203.654965 155.729216,198.87134 156.681415,197.973701 C156.899388,197.763494 156.948145,197.601578 156.89652,197.479431 C156.996903,197.218093 156.747381,197.064699 156.429025,196.97948 L156.360191,197.166961 C156.049198,197.099751 155.732028,197.064529 155.413729,197.061858 C155.413729,197.061858 155.095373,194.556421 156.12501,193.6531 C156.29453,193.443972 156.367396,193.173855 156.325775,192.908854 C156.334463,192.565834 156.298801,192.223122 156.219656,191.889067 C156.219656,191.906111 156.196711,191.928836 156.182371,191.94588 C155.663251,189.673374 153.907993,186.05725 153.907993,186.05725 C153.907993,186.05725 153.827687,183.784745 154.46153,182.870061 C155.095373,181.955378 154.384092,170.487747 154.384092,170.487747 C154.384092,170.487747 154.622142,164.945674 153.907993,162.363539 C153.193844,159.781405 154.768413,156.741929 154.768413,156.741929 C154.768413,156.741929 154.768413,156.682276 154.751205,156.577172 L154.771281,156.537403 C154.771281,156.537403 154.736865,156.196528 154.679503,155.665329 C154.671578,155.681873 154.664869,155.698961 154.659427,155.716461 C154.501683,154.250695 154.197668,151.591863 153.976827,150.36187 C153.658471,148.614881 154.054264,140.260583 154.054264,140.260583 L155.488299,136.692749 L158.023671,142.842717 L160.719655,151.046462 C160.719655,151.046462 162.053307,152.779247 162.084856,154.534758 C162.084856,154.619977 162.084856,154.705196 162.067647,154.790415 C162.046108,154.972376 162.035573,155.15545 162.036099,155.338657 C161.988634,156.374607 162.275978,157.398553 162.856366,158.261667 C162.856366,158.261667 163.570515,162.133448 164.680458,163.121988 C165.7904,164.110528 165.787532,166.00807 165.787532,166.00807 C165.787532,166.00807 167.135524,171.62684 167.769367,172.61538 C168.302828,173.447685 168.342981,175.740075 168.325773,176.43603 C168.325773,176.566699 168.325773,176.640555 168.325773,176.640555 C168.325773,176.640555 168.512197,178.648882 168.506461,180.333377 C168.506461,180.540743 168.506461,180.742428 168.486385,180.93275 L168.486385,180.890141 C168.484474,181.350261 168.429627,181.808666 168.322905,182.256485 C168.313557,182.281521 168.305892,182.307143 168.29996,182.333182 C168.29996,182.239441 168.29996,182.142859 168.322905,182.049118 C168.046753,183.196177 167.913827,184.372475 167.927111,185.551618 C167.889826,187.571307 168.213918,189.96596 169.435715,191.369232 C171.575294,193.800813 172.923286,193.496865 172.923286,193.496865 C172.923286,193.496865 171.890782,196.5335 170.628832,197.141396 C170.581221,197.165417 170.536077,197.193957 170.494032,197.226615 C170.494032,197.166961 170.471088,197.110149 170.462484,197.050495 C170.198621,197.277746 170.092503,197.686797 170.092503,198.186748 C170.000725,199.521845 170.849673,201.692088 171.661336,202.68915 C171.960805,202.979931 172.328353,203.19269 172.731126,203.308408 C172.666312,203.352428 172.599306,203.393195 172.530361,203.430555 C172.389493,203.506836 172.243886,203.574199 172.094415,203.63224 C171.889769,203.722 171.671883,203.778588 171.449099,203.799837 C170.578665,203.819465 169.758678,204.208466 169.197665,204.867914 C168.408947,205.876339 167.912771,207.256886 169.484472,208.466995 L175.151775,210.404306 C175.151775,210.404306 184.886,211.654184 184.366879,209.489622 Z" id="Path" fill="url(#linearGradient-7)"></path>
                <path d="M147.445478,213.091674 L142.029103,211.237224 C140.533367,210.078873 141.009283,208.757373 141.765649,207.789362 C142.290348,207.162134 143.072679,206.784189 143.910103,206.753371 C144.277318,206.71034 144.630253,206.590611 144.944087,206.402603 C145.285803,206.22006 145.577166,205.961833 145.793937,205.649403 C146.190154,205.047612 146.403991,204.351819 146.411494,203.639962 C146.411494,203.639962 152.360442,201.967694 153.986488,203.639962 C154.276951,203.942268 154.519403,204.284021 154.706027,204.654199 C155.555877,206.307433 155.465227,208.330469 155.465227,208.330469 C155.465227,208.330469 155.76834,210.144132 156.25842,212.218832 C156.7485,214.293532 147.445478,213.091674 147.445478,213.091674 Z" id="Path" fill="#2D293D"></path>
                <path d="M174.379163,210.750243 L168.965124,208.895602 C167.472865,207.737131 167.948576,206.415495 168.701784,205.450103 C169.225044,204.821373 170.00777,204.443035 170.845313,204.414005 C171.059859,204.393939 171.26943,204.339716 171.465436,204.25356 C171.608303,204.197731 171.747332,204.133242 171.881683,204.060481 C173.396594,203.260973 173.356952,201.297555 173.356952,201.297555 C173.356952,201.297555 179.303334,199.625115 180.928679,201.297555 C181.146217,201.523549 181.336218,201.772624 181.495001,202.039956 C182.514381,203.731432 182.401116,205.988547 182.401116,205.988547 C182.401116,205.988547 182.704099,207.805116 183.196799,209.877311 C183.689499,211.949505 174.379163,210.750243 174.379163,210.750243 Z" id="Path" fill="#2D293D"></path>
                <path d="M154.349378,203.529523 C154.654763,203.787083 154.909671,204.07825 155.105882,204.393636 L145.735948,205.239216 C146.15252,204.7265 146.377342,204.133696 146.385231,203.527206 C146.385231,203.527206 152.639797,202.107096 154.349378,203.529523 Z" id="Path" fill="#000000" opacity="0.1"></path>
                <path d="M180.873203,202.057971 L180.873203,203.679129 C179.418324,205.897555 172.375997,205.413135 170.332026,204.298417 C170.482138,204.241911 170.628218,204.17664 170.769382,204.102997 C172.361121,203.293794 172.319468,201.306568 172.319468,201.306568 C172.319468,201.306568 178.567413,199.613848 180.275185,201.306568 C180.504796,201.535158 180.705435,201.787259 180.873203,202.057971 Z" id="Path" fill="#000000" opacity="0.1"></path>
                <path d="M181.707788,194.611268 C181.291587,195.339142 180.936676,196.100585 180.646751,196.887669 L180.646751,202.903059 C179.128958,205.412791 171.239272,204.576214 170.178235,203.207528 C169.117198,201.838842 167.979563,198.262046 169.19096,197.653109 C170.402358,197.044172 171.386795,194.002331 171.386795,194.002331 C171.386795,194.002331 170.095962,194.3068 168.047651,191.87105 C165.99934,189.435301 166.606457,184.03454 166.989451,182.742682 C167.372446,181.450824 166.989451,177.111435 166.989451,177.111435 C166.989451,177.111435 167.06605,174.069594 166.458933,173.079359 C165.851816,172.089125 164.578004,166.460723 164.578004,166.460723 C164.578004,166.460723 164.578004,164.559928 163.514131,163.569694 C162.450257,162.57946 161.769378,158.701041 161.769378,158.701041 C161.148563,157.731425 160.880963,156.57639 161.0119,155.43156 C161.23886,153.52792 159.721067,151.473468 159.721067,151.473468 L157.142237,143.258505 L154.716606,137.095149 L153.35201,140.671945 C153.35201,140.671945 152.971853,149.040564 153.275412,150.790547 C153.57897,152.540531 154.03289,157.181543 154.03289,157.181543 C154.03289,157.181543 152.517934,160.223384 153.198813,162.809945 C153.879692,165.396506 153.655569,170.950924 153.655569,170.950924 C153.655569,170.950924 154.336448,182.438213 153.729331,183.351619 C153.122214,184.265025 153.198813,186.547117 153.198813,186.547117 C153.198813,186.547117 156.319508,193.239737 155.323723,194.153142 C154.327937,195.066548 154.640007,197.567744 154.640007,197.567744 C154.640007,197.567744 156.764917,197.567744 155.854241,198.48115 C154.943565,199.394556 154.259849,204.172153 154.259849,204.172153 L145.090677,205.239216 C145.090677,205.239216 144.239579,204.172153 143.036692,201.357952 C141.833806,198.543751 143.263652,198.84822 144.48356,198.543751 C145.703469,198.239282 144.931806,197.479534 143.490612,196.5519 C142.049418,195.624267 142.883494,193.584042 142.883494,193.584042 C142.883494,193.584042 145.082167,189.856435 144.324689,189.551967 C143.567211,189.247498 143.490612,183.997548 143.490612,183.997548 C143.490612,183.997548 141.972819,177.760209 142.355813,176.087054 C142.738808,174.4139 141.127394,170.407434 141.127394,170.407434 L140.596876,165.612764 C137.864848,160.897768 138.928722,156.561224 138.928722,156.561224 L138.928722,149.191376 C138.928722,149.191376 136.803812,134.889886 136.500253,127.662313 C136.307337,123.032682 136.36124,116.715669 136.423654,112.774649 C136.460535,110.563695 136.500253,109.098262 136.500253,109.098262 L169.267559,105.68366 C169.267559,105.68366 169.233515,107.200312 169.863328,110.56654 C170.195257,112.370588 170.714427,114.706745 171.54283,117.629075 C173.8947,125.997694 172.453506,132.235033 172.453506,132.235033 L172.149947,142.806071 C172.149947,142.806071 175.032335,149.882833 174.419544,152.315736 C174.05578,153.759953 173.852173,155.240051 173.812427,156.729109 C173.812427,156.729109 180.266593,172.168799 179.582877,176.667537 C178.899161,181.166274 181.707788,188.231654 181.707788,188.231654 C181.707788,188.231654 182.465266,193.239737 181.707788,194.611268 Z" id="Path" fill="#9A8C98"></path>
                <path d="M163.304575,155.256572 L173.845752,153.704575 C173.845752,153.704575 167.873618,160.443159 163.304575,155.256572 Z" id="Path" fill="#000000" opacity="0.05"></path>
                <path d="M172.095409,144.334641 C172.095409,144.334641 172.425014,147.738156 170.332026,149.019608 C170.332026,149.019608 174.078529,148.433645 172.095409,144.334641 Z" id="Path" fill="#000000" opacity="0.1"></path>
                <path d="M171.503268,132.622222 C171.503268,132.622222 163.220364,138.972624 160.207631,138.44758 C157.194897,137.922537 171.503268,132.622222 171.503268,132.622222 Z" id="Path" fill="#000000" opacity="0.1"></path>
                <path d="M151.592157,158.389542 C151.592157,158.389542 144.776732,159.868123 144.569094,162.472408 C144.361455,165.076692 151.592157,158.389542 151.592157,158.389542 Z" id="Path" fill="#000000" opacity="0.1"></path>
                <path d="M152.464794,190.013072 C152.464794,190.013072 143.689324,191.625671 146.181502,192.723552 C148.67368,193.821433 152.762409,194.697548 152.762409,194.697548 C152.762409,194.697548 155.588361,194.845392 152.464794,190.013072 Z" id="Path" fill="#000000" opacity="0.05"></path>
                <g id="Group" opacity="0.05" transform="translate(136.366013, 109.197386)" fill="#000000">
                    <path d="M7.5679574,85.3497396 C7.11407554,85.0655684 6.81403579,84.5888502 6.75307674,84.0550164 L6.66284774,84.2136696 C6.66284774,84.2136696 5.8338688,86.2591622 7.26625418,87.1685849 L7.73149746,87.4745589 C7.99372549,87.4263963 8.27851077,87.3895661 8.55483709,87.3187388 C9.76728928,87.0155979 9.00034277,86.2591622 7.5679574,85.3497396 Z" id="Path"></path>
                    <path d="M19.0270404,84.7434578 C19.2695309,84.5168105 19.2610719,83.9360265 19.1116301,83.1880902 C18.7112389,83.7745403 18.6153706,84.686796 18.6069116,85.3809036 C18.7000382,85.1407124 18.8432954,84.9233535 19.0270404,84.7434578 Z" id="Path"></path>
                    <path d="M17.6566875,47.0604967 C17.3272002,47.955826 17.125014,48.8933661 17.0561007,49.8454265 C17.2259325,49.1879286 17.4562563,48.5477259 17.7440968,47.9330892 C17.7440968,47.9330892 17.710261,47.590285 17.6566875,47.0604967 Z" id="Path"></path>
                    <path d="M38.0230646,43.0828351 C38.0847949,42.8116262 38.112268,42.5336828 38.1048347,42.2555721 C37.9948681,42.8221906 37.9159177,43.3463127 37.8595246,43.8052736 C37.9074587,43.570127 37.9610322,43.3293141 38.0230646,43.0828351 Z" id="Path"></path>
                    <path d="M17.4423936,73.9890394 C17.5664585,73.8020553 17.6341302,73.1787749 17.6679661,72.3061825 C17.3860005,72.8586355 17.2703946,73.7510596 17.233739,74.4310018 C17.2856202,74.2758961 17.3556628,74.127535 17.4423936,73.9890394 Z" id="Path"></path>
                    <path d="M19.3118257,88.2734909 C18.6915013,89.9733463 18.2713725,92.9254285 18.2713725,92.9254285 L9.15542387,93.985005 C9.15542387,93.985005 8.30952699,92.9254285 7.11399274,90.1235002 C7.00966546,89.8770212 6.92507577,89.6560399 6.85740402,89.4548904 C6.3103907,89.7070356 6.09609683,90.2764872 6.81228952,91.9395124 C8.0191024,94.7414407 8.85372065,95.8038503 8.85372065,95.8038503 L17.9696693,94.7357745 C17.9696693,94.7357745 18.6492065,89.964847 19.5543161,89.0695898 C19.9998218,88.6162951 19.7150366,88.3868146 19.3118257,88.2734909 Z" id="Path"></path>
                    <path d="M7.26625418,74.6689815 C7.26625418,74.6689815 7.34238489,79.8960369 8.09523312,80.1991777 C8.47588671,79.3350846 8.72965577,78.4993223 8.37719874,78.3774994 C7.62435052,78.0771916 7.5482198,72.8501362 7.5482198,72.8501362 C7.5482198,72.8501362 6.0397037,66.6371647 6.4203573,64.9713065 C6.80101089,63.3054482 5.21354442,59.2909563 5.21354442,59.2909563 L4.6862687,54.5200288 C1.97093972,49.8227618 3.02831082,45.505129 3.02831082,45.505129 L3.02831082,38.1617537 C3.02831082,38.1617537 0.916388284,23.9197986 0.614685064,16.723744 C0.422948439,12.1171359 0.476521908,5.82767093 0.538554345,1.90383805 C0.538554345,1.19273187 0.563931252,0.563785374 0.575209877,0.033997108 L0.312981845,0.059494939 C0.312981845,0.059494939 0.273506657,1.51853749 0.236851126,3.71985023 C0.174818688,7.64368311 0.121245219,13.9189826 0.312981845,18.5425893 C0.614685064,25.7386438 2.7266076,39.9777659 2.7266076,39.9777659 L2.7266076,47.3268074 C2.7266076,47.3268074 1.6692365,51.6444401 4.38456548,56.3388741 L4.9118412,61.1126347 C4.9118412,61.1126347 6.49366836,65.1271265 6.11865408,66.7788194 C5.7436398,68.4305122 7.26625418,74.6689815 7.26625418,74.6689815 Z" id="Path"></path>
                    <path d="M34.1037424,91.9395124 C33.3629545,90.8625601 32.8698276,89.6335456 32.6600784,88.3414851 C31.7295919,89.1914128 32.7982416,92.4636344 33.7879409,93.7583576 C34.8424924,95.1210751 42.6839564,95.9540042 44.1924725,93.4552168 L44.1924725,92.0131728 C42.1679593,94.0445 35.1019008,93.2285694 34.1037424,91.9395124 Z" id="Path"></path>
                    <path d="M45.5628255,83.3807404 C45.1476716,84.1050687 44.7939648,84.863239 44.5054544,85.6472143 L44.5054544,86.7096239 C44.6774534,86.3214903 44.9227635,85.8030344 45.2611222,85.1939195 C45.4782358,84.8001197 45.5684648,84.1060121 45.591022,83.3155793 C45.5797434,83.3410771 45.5712844,83.3637419 45.5628255,83.3807404 Z" id="Path"></path>
                    <path d="M34.5661661,84.5734723 C34.8545095,83.9914092 35.1032105,83.3903573 35.3105553,82.7744587 C35.3105553,82.7744587 34.0276117,83.0775996 31.9918199,80.6553056 C30.5115004,78.8902891 30.4269107,75.5557394 30.6383849,73.3827576 C30.2577313,74.6718146 29.6571445,80.0490238 31.6901167,82.4713178 C33.0266337,84.0578495 34.0276117,84.4743141 34.5661661,84.5734723 Z" id="Path"></path>
                    <path d="M30.6355652,67.7760679 C30.768312,69.2689365 30.8182032,70.7680752 30.785007,72.2665192 C30.8236483,72.0295999 30.8754225,71.7950326 30.9400881,71.5639123 C31.3207417,70.2776884 30.9400881,65.9600557 30.9400881,65.9600557 C30.9400881,65.9600557 31.0162188,62.9286469 30.4128124,61.9455638 C29.809406,60.9624808 28.5151837,55.3557911 28.5151837,55.3557911 C28.5151837,55.3557911 28.5151837,53.4604523 27.4606323,52.4773693 C26.4060809,51.4942862 25.7265437,47.6299483 25.7265437,47.6299483 C25.1097496,46.6634103 24.8438311,45.5126108 24.9736955,44.3718921 C25.199268,42.4793864 23.6907519,40.4338938 23.6907519,40.4338938 L21.1276843,32.2519231 L18.7168782,26.1182782 L17.3578039,29.6766422 C17.3578039,29.6766422 17.3380663,30.1242708 17.3126894,30.8268777 L18.415175,27.9342904 L20.8259811,34.0707684 L23.3890487,42.249906 C23.3890487,42.249906 24.8975648,44.2953986 24.6719923,46.1907374 C24.5418549,47.3305743 24.8078195,48.4805726 25.4248405,49.4459605 C25.4248405,49.4459605 26.1043776,53.3102984 27.1589291,54.2933815 C28.2134805,55.2764645 28.2332181,57.1718033 28.2332181,57.1718033 C28.2332181,57.1718033 29.5161617,62.778493 30.1195681,63.761576 C30.7229746,64.7446591 30.6355652,67.7760679 30.6355652,67.7760679 Z" id="Path"></path>
                </g>
                <path d="M173.702162,37.0025947 L173.089876,39.8834152 L173.126613,41.1644357 L173.151104,42.1119187 L169.722301,42.4366013 L169.339622,41.7547678 C168.632431,40.5209738 167.166005,38.0091109 166.688421,37.6224434 C166.057766,37.1088545 164.931159,29.0980485 166.284312,29.5732658 C167.108779,29.8808415 167.785997,30.471743 168.185462,31.2320989 C168.185462,31.2320989 174.902243,31.9847723 173.702162,37.0025947 Z" id="Path" fill="#B57F50"></path>
                <path d="M173.845752,41.0286333 L170.685947,41.2653595 L170.332026,40.7898486 C170.785045,40.4501979 172.078979,39.6782647 173.820269,40.3781508 L173.845752,41.0286333 Z" id="Path" fill="#000000" opacity="0.1"></path>
                <path d="M173.845752,42.6111897 L169.497323,43.6078431 L169.405808,42.9741328 L169.160784,41.2775175 C169.160784,41.2775175 170.875949,39.0422485 173.364561,40.7158198 L173.580064,41.5799702 L173.845752,42.6111897 Z" id="Path" fill="#DCE6F2"></path>
                <path d="M105.913725,36.6015687 L101.256005,38.9228758 C101.256005,38.9228758 101.077776,38.5818307 100.834197,38.0977666 C100.388624,37.2369027 99.7291762,35.938731 99.5479767,35.4739195 C99.2717216,34.7588249 97.3230836,33.8567055 97.3230836,33.8567055 C92.4425772,29.5358838 98.2587863,25.8228925 98.2587863,25.8228925 C101.336208,20.0883838 104.770089,27.7701502 104.770089,27.7701502 C104.770089,27.7701502 105.245366,31.8186858 104.909702,32.0909719 C104.574037,32.3632579 104.574037,33.4661538 104.574037,33.4661538 C105.019483,34.2620146 105.394978,35.0897998 105.69688,35.9414813 C105.836493,36.3540359 105.913725,36.6015687 105.913725,36.6015687 Z" id="Path" fill="#B57F50"></path>
                <path d="M105.913725,37.3832441 L101.617802,40.0941176 C101.617802,40.0941176 101.453417,39.6958377 101.228758,39.130537 C101.834242,38.536329 103.987683,36.4903261 104.694538,36.5834722 C105.032615,36.6325971 105.374016,36.6422803 105.713724,36.6123796 C105.842492,37.0941699 105.913725,37.3832441 105.913725,37.3832441 Z" id="Path" fill="#000000" opacity="0.1"></path>
                <path d="M105.913725,38.5279396 L101.392694,41.2653595 L101.303041,40.0697048 L101.228758,39.2327466 C101.228758,39.2327466 103.846602,36.476448 104.620172,36.5834276 C105.011674,36.6542984 105.409518,36.6542984 105.80102,36.5834276 L105.85225,37.5840018 L105.913725,38.5279396 Z" id="Path" fill="#DCE6F2"></path>
                <path d="M162.133333,54.9410683 C162.133333,54.9410683 139.727352,57.4401318 143.915005,56.0927105 C146.827142,55.1541221 147.991996,53.3201319 148.230792,51.2874835 C148.428817,49.5859321 147.986172,47.7461837 147.397921,46.1626757 C146.868777,44.7650937 146.197485,43.4242333 145.39437,42.1607191 C145.39437,42.1607191 162.52356,32.8439339 159.081414,41.2969875 C158.553452,42.578223 158.226438,43.9316399 158.111672,45.3104605 C158.006854,46.6797747 158.155877,48.0565021 158.551405,49.3728783 C159.200133,51.5213646 160.440291,53.449219 162.133333,54.9410683 Z" id="Path" fill="#B57F50"></path>
                <circle id="Oval" fill="#B57F50" cx="152.177778" cy="38.3372549" r="8.78431373"></circle>
                <path d="M162.133333,54.9153018 C162.133333,54.9153018 139.727352,57.4558969 143.915005,56.086083 C146.827142,55.1318964 147.991996,53.2674274 148.230792,51.2009987 C149.34614,49.9892402 151.588486,49.1111543 153.027081,48.6457688 C154.346322,48.1993544 155.770954,48.1758307 157.104073,48.5784489 C157.627084,48.7351617 158.124493,48.9678756 158.580526,49.2692098 C159.223545,51.4447816 160.453224,53.3989769 162.133333,54.9153018 Z" id="Path" fill="#000000" opacity="0.1"></path>
                <path d="M173.845752,42.5256994 L169.257349,43.6078431 L169.160784,42.9197749 C170.453511,41.2621559 172.082659,41.0619906 173.565401,41.4091523 L173.845752,42.5256994 Z" id="Path" fill="#000000" opacity="0.1"></path>
                <path d="M105.913725,38.6481153 L101.319855,41.2653595 L101.228758,40.1221954 C102.871099,39.0030979 105.622216,37.8509088 105.86167,37.751634 L105.913725,38.6481153 Z" id="Path" fill="#000000" opacity="0.1"></path>
                <path d="M170.332026,110.258886 C161.744708,111.513469 149.523629,113.149766 147.584278,112.602554 C145.976317,112.148769 140.838334,112.196817 136.366013,112.335622 C136.403475,110.261555 136.443818,108.886852 136.443818,108.886852 L169.72688,105.68366 C169.72688,105.68366 169.6923,107.101072 170.332026,110.258886 Z" id="Path" fill="#000000" opacity="0.1"></path>
                <path d="M178.530719,108.309177 C178.530719,108.309177 150.604324,113.106588 147.604484,112.19266 C144.604645,111.278732 129.22122,112.269533 129.22122,112.269533 C122.296544,116.910352 125.18823,110.060161 125.18823,110.060161 C125.18823,110.060161 124.579154,106.484167 125.415922,103.591484 C125.974086,101.46961 126.354885,99.3049757 126.55438,97.119961 C126.55438,97.119961 126.403535,92.5645551 127.240302,91.4883405 C128.077069,90.4121259 129.064682,82.8102923 129.064682,82.8102923 C129.064682,82.8102923 129.82745,77.6342124 129.750604,76.4925138 C129.673758,75.3508152 129.978295,72.1534897 129.978295,72.1534897 L130.971601,66.8350533 C125.279307,66.07487 107.917809,55.4180674 107.917809,55.4180674 C107.081042,51.8392266 100.61175,43.460127 100.61175,43.460127 C100.517685,42.7559884 100.338982,42.0657856 100.07952,41.4045001 C99.6212904,40.185929 106.471967,37.751634 106.471967,37.751634 C106.471967,37.751634 111.569416,43.99254 112.633875,45.6666517 C113.698334,47.3407633 117.352787,50.4640635 117.352787,50.4640635 C117.920087,50.4057195 118.493168,50.4807916 119.026321,50.6832924 C119.057629,50.6832924 119.083244,50.7003752 119.114552,50.7089166 C119.14586,50.7174579 119.114552,50.7089166 119.114552,50.7089166 C120.82224,51.3039665 122.529928,52.664894 122.529928,52.664894 C125.270768,52.5139961 127.171994,54.4158781 127.171994,54.4158781 C127.171994,54.4158781 130.302756,53.9603375 130.823601,54.4927506 C131.344446,55.0251636 134.019824,54.4927506 134.019824,54.4927506 C134.019824,54.4927506 136.683818,48.8582829 138.434199,50.5067704 C140.184579,52.1552579 147.610177,52.0669969 147.610177,52.0669969 C148.600636,50.7516235 151.008476,49.8092239 152.514088,49.3223649 C153.803435,48.8881252 155.195784,48.865243 156.498694,49.2568809 C157.060323,49.4169233 157.58996,49.6731635 158.064075,50.0142172 L162.569526,54.4272666 C162.569526,54.4272666 163.864523,52.7531549 163.707985,52.3716397 C163.551447,51.9901245 165.230674,51.6883288 165.230674,51.6883288 C165.230674,51.6883288 167.436438,51.0021708 168.273205,50.7744005 C169.109972,50.5466302 169.878432,51.4520171 169.946739,51.5317367 C169.918278,51.4349344 169.346202,49.5928421 169.568202,48.1863606 C169.790201,46.779879 168.654588,45.4445757 168.654588,45.4445757 C171.318582,38.8961797 177.329645,44.3797495 177.329645,44.3797495 C177.329645,44.3797495 178.015566,47.9585903 177.406491,49.3280592 C176.797415,50.697528 178.015566,53.5987522 177.861874,54.3503941 C177.708182,55.1020361 178.166412,56.406021 178.166412,57.8523624 C178.166412,59.2987038 177.406491,62.0404887 176.948261,63.2619069 C176.490031,64.4833251 172.824194,67.2051801 172.824194,67.2051801 C172.824194,67.2051801 172.593656,71.5442042 170.996968,74.0553717 C169.400279,76.5665391 170.387892,85.1591735 170.387892,85.1591735 C170.387892,85.1591735 171.910581,91.8584672 173.803269,93.9852723 C175.695956,96.1120775 178.530719,108.309177 178.530719,108.309177 Z" id="Path" fill="#C9ADA7"></path>
                <path d="M137.359808,57.6627451 C137.359808,57.6627451 136.626176,55.1416095 135.959918,54.9100767 C135.295506,54.6303053 134.648539,54.29891 134.023529,53.9182014 L134.452729,52.9777778 C134.452729,52.9777778 136.960553,53.7638461 137.359808,54.6042246 C137.759064,55.4446032 137.359808,57.6627451 137.359808,57.6627451 Z" id="Path" fill="#000000" opacity="0.1"></path>
                <path d="M122.311111,52.6689429 C122.158026,53.4497708 115.28366,54.1490196 115.28366,54.1490196 L118.749727,50.6352941 L118.836379,50.6644295 C118.836379,50.6644295 118.836379,50.6644295 118.836379,50.6644295 C120.59252,51.2762722 122.311111,52.6689429 122.311111,52.6689429 Z" id="Path" fill="#000000" opacity="0.1"></path>
                <circle id="Oval" fill="#575988" cx="102.985621" cy="41.8509804" r="1"></circle>
                <circle id="Oval" fill="#575988" cx="104.156863" cy="43.0222222" r="1"></circle>
                <circle id="Oval" fill="#575988" cx="104.156863" cy="44.1934641" r="1"></circle>
                <circle id="Oval" fill="#575988" cx="105.328105" cy="45.3647059" r="1"></circle>
                <circle id="Oval" fill="#575988" cx="176.773856" cy="45.3647059" r="1"></circle>
                <circle id="Oval" fill="#575988" cx="176.773856" cy="46.5359477" r="1"></circle>
                <circle id="Oval" fill="#575988" cx="177.945098" cy="47.7071895" r="1"></circle>
                <path d="M137.537459,78.7453655 C137.469033,78.6576008 154.643769,100.205264 167.989542,87.7539931 C167.989542,87.7483308 146.914568,90.5936076 137.537459,78.7453655 Z" id="Path" fill="#000000" opacity="0.1"></path>
                <path d="M128.16732,90.4575163 C128.16732,90.4575163 138.76847,90.7627269 139.879739,93.924708 L139.879739,97.2179297 C139.266908,97.5739798 138.519921,97.5739798 137.90709,97.2179297 C136.836979,96.6075087 130.428076,93.2501928 128.16732,94.8647565 L128.16732,90.4575163 Z" id="Path" fill="#000000" opacity="0.1"></path>
                <path d="M128.16732,90.4575163 C128.16732,90.4575163 137.709713,90.7082364 138.708497,93.3461315 L138.708497,96.090716 C138.156589,96.388062 137.484174,96.388062 136.932267,96.090716 C135.972218,95.5919431 130.200854,92.7753433 128.16732,94.1302985 L128.16732,90.4575163 Z" id="Path" fill="#F2E9E4"></path>
                <path d="M134.023529,68.2039216 C134.023529,68.2039216 135.236543,71.2350352 138.13544,75.0538959 C139.927655,77.3906136 142.099103,79.4284558 144.564706,81.0875817 C144.564706,81.0875817 134.199754,69.6195829 134.023529,68.2039216 Z" id="Path" fill="#000000" opacity="0.1"></path>
                <path d="M130.509804,56.4915033 C130.509804,56.4915033 132.142576,63.4920291 136.366013,65.8614379 L130.509804,56.4915033 Z" id="Path" fill="#000000" opacity="0.1"></path>
                <path d="M128.320034,56.4938563 C128.277258,56.3540851 126.797201,62.4748985 134.023529,65.8614379 C134.020678,65.8614379 130.952197,64.7985945 128.320034,56.4938563 Z" id="Path" fill="#000000" opacity="0.1"></path>
                <path d="M172.677173,51.8114814 C172.560116,51.8114814 176.335223,54.212061 177.359477,55.3202614 C177.359477,55.3290177 174.895415,51.653587 172.677173,51.8114814 Z" id="Path" fill="#000000" opacity="0.1"></path>
                <path d="M149.867928,46.7462873 C149.997691,47.2195627 150.15629,47.7390113 150.583067,47.9871923 C150.852869,48.1169761 151.148814,48.1831211 151.448154,48.1805427 C154.24527,48.3536922 157.154847,48.4691252 159.744341,47.3984839 C160.226401,47.2267405 160.659066,46.9393984 161.004485,46.5615944 C161.462982,45.9988584 161.552374,45.2341146 161.736926,44.5415164 C162.100263,43.1707492 162.873074,41.9442732 163.432497,40.6427658 C164.369819,38.4362704 164.684012,36.0146386 164.340839,33.6417525 C164.26877,32.9128261 164.028925,32.210522 163.640118,31.5899304 C162.896143,30.5308323 161.546607,30.1008443 160.563291,29.2581832 C159.579975,28.4155221 158.951345,27.125558 157.806546,26.4906763 C156.774208,25.9135111 155.499646,25.9856568 154.346197,26.1818929 C152.058426,26.5723168 149.866114,27.396041 147.886878,28.6088724 C147.223645,29.0186597 146.494088,29.4890493 145.727044,29.344758 C145.058043,29.2177816 144.573594,28.6550456 144.14105,28.1269395 C143.593224,29.3853159 143.356809,30.7573754 143.451864,32.126694 C143.481262,32.3273284 143.474425,32.5316153 143.431679,32.7298316 C143.336831,32.9697814 143.191243,33.1863606 143.004902,33.3647132 C142.315716,34.1669728 141.883172,35.4367361 142.566591,36.250539 C142.854954,36.6026097 143.319217,36.7959601 143.60758,37.1538025 C144.126632,37.8002274 143.950731,38.7265775 143.939196,39.5519237 C143.908355,39.838534 143.97986,40.1268201 144.14105,40.3657265 C144.400576,40.6802815 144.873491,40.706254 145.274314,40.6369941 C145.675138,40.5677343 146.084613,40.4321005 146.479669,40.5215611 C146.91039,40.6651167 147.28018,40.9497874 147.529309,41.3295923 C148.821172,42.9600839 149.325807,44.7810399 149.867928,46.7462873 Z" id="Path" fill="#2D293D"></path>
                <g id="Group" opacity="0.1" transform="translate(141.050980, 28.381699)" fill="#000000">
                    <path d="M19.6739346,17.4180156 C19.3231872,17.7851573 18.8838488,18.0643899 18.3943529,18.2312864 C15.7590588,19.2801252 12.8104575,19.1595368 9.97019608,18.9884695 C9.66631631,18.9932756 9.36548086,18.9298883 9.09176471,18.8033803 C8.66133333,18.5593991 8.50614379,18.0574147 8.36559477,17.5974961 C7.81511111,15.6736901 7.30269281,13.9181471 5.99090196,12.3196495 C5.73793014,11.9505634 5.36243642,11.6739267 4.9250719,11.5344225 C4.52392157,11.4474867 4.10813072,11.5792926 3.70112418,11.6465978 C3.29411765,11.713903 2.82269281,11.6886635 2.55037908,11.3829859 C2.3867029,11.1508219 2.31409412,10.8706718 2.34541176,10.5921502 C2.34541176,9.79009703 2.53281046,8.88708607 2.00867974,8.26170892 C1.71586928,7.91116119 1.25322876,7.72607199 0.948705882,7.3839374 C0.515346405,6.88756182 0.527058824,6.21731455 0.770091503,5.5919374 C0.272313725,6.3491205 0.0556339869,7.322241 0.638326797,7.98127074 C0.931137255,8.3262097 1.40256209,8.5112989 1.69537255,8.86184664 C2.21950327,9.48722379 2.04381699,10.3902347 2.03210458,11.1922879 C2.00078693,11.4708095 2.07339571,11.7509596 2.2370719,11.9831236 C2.50060131,12.2888013 2.98081046,12.3140407 3.38781699,12.2467355 C3.79482353,12.1794304 4.21061438,12.0476244 4.61176471,12.1345603 C5.04912923,12.2740644 5.42462295,12.5507011 5.67759477,12.9197872 C6.98938562,14.5182848 7.50180392,16.2850454 8.05228758,18.1976338 C8.18405229,18.654748 8.34509804,19.1595368 8.77845752,19.403518 C9.05217367,19.530026 9.35300912,19.5934133 9.65688889,19.5886072 C12.4971503,19.7596745 15.4516078,19.8690454 18.0810458,18.8314241 C18.5705416,18.6645276 19.00988,18.385295 19.3606275,18.0181534 C19.5381738,17.8012838 19.6749112,17.5564461 19.7647059,17.2946228 C19.7354248,17.3366886 19.7061438,17.3787543 19.6739346,17.4180156 Z" id="Path"></path>
                    <path d="M1.54603922,4.41690141 C1.67572148,4.287805 1.77549882,4.13395114 1.83884967,3.96539593 C1.8822554,3.77277373 1.88919779,3.57425224 1.85934641,3.37928013 C1.78218404,2.28633628 1.93043188,1.18953487 2.29563399,0.15143662 L2.24585621,0.0925446009 C1.68935754,1.3153432 1.44928569,2.64873299 1.54603922,3.97941784 C1.56066302,4.1249094 1.56066302,4.27140985 1.54603922,4.41690141 Z" id="Path"></path>
                </g>
                <path d="M148.078431,52.0944297 C148.078431,52.0944297 159.900349,54.2618583 160.962092,51.8065359" id="Path" fill="#000000" opacity="0.1"></path>
                <path d="M169.160784,47.1215686 C169.160784,47.1215686 175.880426,47.1215686 177.359477,49.4640523" id="Path" fill="#000000" opacity="0.1"></path>
            </g>
        </g>
    </g>
</svg>