<?xml version="1.0" encoding="UTF-8"?>
<svg width="272px" height="241px" viewBox="0 0 272 241" version="1.1" xmlns="http://www.w3.org/2000/svg" xmlns:xlink="http://www.w3.org/1999/xlink">
    <!-- Generator: Sketch 52.2 (67145) - http://www.bohemiancoding.com/sketch -->
    <title>undraw_notebook_g9x9</title>
    <desc>Created with Sketch.</desc>
    <defs>
        <linearGradient x1="50%" y1="100%" x2="50%" y2="0%" id="linearGradient-1">
            <stop stop-color="#808080" stop-opacity="0.25" offset="0%"></stop>
            <stop stop-color="#808080" stop-opacity="0.12" offset="54%"></stop>
            <stop stop-color="#808080" stop-opacity="0.1" offset="100%"></stop>
        </linearGradient>
    </defs>
    <g id="Symbols" stroke="none" stroke-width="1" fill="none" fill-rule="evenodd">
        <g id="Notebook-image" transform="translate(0.000000, -1.000000)">
            <g id="undraw_notebook_g9x9" transform="translate(0.000000, 1.000000)">
                <rect id="Rectangle" fill="#F5F5F5" x="0" y="90.3113968" width="271.704129" height="150.625464"></rect>
                <rect id="Rectangle" fill="#F5F5F5" x="2.87466007" y="92.308529" width="265.958171" height="146.631199"></rect>
                <rect id="Rectangle" fill="#E0E0E0" x="5.50388133" y="95.8455377" width="130.344821" height="139.627787"></rect>
                <rect id="Rectangle" fill="#E0E0E0" x="135.852064" y="95.8455377" width="130.344821" height="139.627787"></rect>
                <rect id="Rectangle" fill="#FFFFFF" x="7.61532756" y="96.9536218" width="128.236737" height="135.408257"></rect>
                <rect id="Rectangle" fill="#FFFFFF" x="135.852064" y="97.9536218" width="128.236737" height="135.408257"></rect>
                <rect id="Rectangle" fill="#303C6C" opacity="0.2" x="19.0030161" y="107.233226" width="90.2710507" height="5.06343634"></rect>
                <rect id="Rectangle" fill="#303C6C" opacity="0.2" x="19.0030161" y="118.200643" width="33.7461557" height="5.06343634"></rect>
                <rect id="Rectangle" fill="#303C6C" opacity="0.2" x="65.4044005" y="118.200643" width="33.7461557" height="5.06343634"></rect>
                <rect id="Rectangle" fill="#303C6C" x="75.527911" y="214.80267" width="33.7461557" height="5.06343634"></rect>
                <rect id="Rectangle" fill="#1E1E24" opacity="0.2" x="75.527911" y="214.80267" width="33.7461557" height="5.06343634"></rect>
                <rect id="Rectangle" fill="#303C6C" opacity="0.2" x="19.0030161" y="129.171422" width="90.2710507" height="5.06343634"></rect>
                <rect id="Rectangle" fill="#303C6C" opacity="0.2" x="19.0030161" y="140.138838" width="53.9931768" height="5.06343634"></rect>
                <rect id="Rectangle" fill="#303C6C" opacity="0.2" x="155.678813" y="107.233226" width="90.2710507" height="5.06343634"></rect>
                <rect id="Rectangle" fill="#303C6C" opacity="0.2" x="155.678813" y="118.200643" width="33.7461557" height="5.06343634"></rect>
                <rect id="Rectangle" fill="#303C6C" opacity="0.2" x="202.080198" y="118.200643" width="33.7461557" height="5.06343634"></rect>
                <rect id="Rectangle" fill="#303C6C" opacity="0.2" x="155.678813" y="129.171422" width="90.2710507" height="5.06343634"></rect>
                <rect id="Rectangle" fill="#303C6C" opacity="0.2" x="155.678813" y="140.138838" width="53.9931768" height="5.06343634"></rect>
                <rect id="Rectangle" fill="url(#linearGradient-1)" x="17.7388381" y="166.713473" width="82.2589864" height="38.385958"></rect>
                <rect id="Rectangle" fill="#303C6C" x="19.0030161" y="168.401286" width="80.1475402" height="35.4339679"></rect>
                <polygon id="Path" fill="#E3E3E3" points="262.659876 201.69691 257.572905 201.807862 257.687219 200.039357 244.786551 200.315056 254.994116 201.861656 198.603708 203.082126 198.630606 204.406823 191.069073 204.568208 191.122868 206.972163 191.092608 205.671001 182.673721 207.399159 191.149765 208.320396 191.183387 209.863634 198.748282 209.70225 198.765093 210.58314 262.824623 209.197923"></polygon>
                <polygon id="Rectangle" fill="#FFCF99" transform="translate(230.793875, 206.418165) rotate(178.750000) translate(-230.793875, -206.418165) " points="200.421662 202.832405 261.166087 202.832405 261.166087 210.003925 200.421662 210.003925"></polygon>
                <polygon id="Rectangle" fill="#FFCF99" transform="translate(197.483272, 207.350915) rotate(178.750000) translate(-197.483272, -207.350915) " points="193.265423 204.819197 201.701121 204.819197 201.701121 209.882633 193.265423 209.882633"></polygon>
                <polygon id="Path" fill="#303C6C" points="193.291471 208.495229 185.255871 207.614339 193.237676 205.963511"></polygon>
                <polyline id="Path" stroke="#FFCF99" stroke-width="3" points="256.234759 202.692114 256.372608 200.577305 244.141014 200.846279"></polyline>
                <path d="M217.868974,191.418739 L223.356044,194.57246" id="Path" stroke="#1E1E24" stroke-width="5" fill="#1E1E24" stroke-linecap="round"></path>
                <path d="M155.50398,155.594759 L160.991051,158.745117" id="Path" stroke="#1E1E24" stroke-width="5" fill="#1E1E24" stroke-linecap="round"></path>
                <circle id="Oval" fill="#F2E9E4" transform="translate(204.712803, 183.882415) rotate(-60.120000) translate(-204.712803, -183.882415) " cx="204.712803" cy="183.882415" r="15.1869468"></circle>
                <circle id="Oval" fill="#F2E9E4" transform="translate(174.274132, 166.154198) rotate(-60.120000) translate(-174.274132, -166.154198) " cx="174.274132" cy="166.154198" r="15.1869468"></circle>
                <path d="M187.353869,173.404203 L191.741508,175.925834" id="Path" stroke="#1E1E24" stroke-width="5" fill="#1E1E24"></path>
                <path d="M164.645735,162.547738 C166.816739,158.770982 170.725658,156.323055 175.071297,156.01882 C179.416936,155.714585 183.628808,157.593981 186.30487,161.031397 C184.333199,156.343435 179.822152,153.224026 174.739983,153.034224 C169.657813,152.844422 164.926658,155.618667 162.610809,160.146505 C160.294959,164.674342 160.814615,170.134215 163.943041,174.143881 C162.349791,170.381502 162.609832,166.090201 164.645735,162.547738 Z" id="Path" fill="#FFFFFF" opacity="0.2"></path>
                <path d="M195.362571,180.195797 C197.533574,176.419041 201.442493,173.971115 205.788132,173.666879 C210.133772,173.362644 214.345644,175.24204 217.021706,178.679456 C215.050035,173.991495 210.538988,170.872085 205.456818,170.682283 C200.374649,170.492482 195.643494,173.266727 193.327644,177.794564 C191.011794,182.322401 191.53145,187.782275 194.659876,191.791941 C193.066627,188.029561 193.326668,183.73826 195.362571,180.195797 Z" id="Path" fill="#FFFFFF" opacity="0.2"></path>
                <path d="M253.837528,32.5021508 L245.600198,32.5021508 C244.033424,20.8354017 234.0444,12.1744376 221.950655,12.1744376 C208.76682,12.1744379 198.079209,22.8620483 198.079209,36.0458838 C198.079209,49.2297193 208.76682,59.9173298 221.950655,59.91733 C234.168801,59.91733 244.238517,51.0714462 245.647268,39.2332262 L253.837528,39.2332262 C255.518616,39.2332262 256.863486,37.5353276 256.863486,35.8710507 C256.863486,34.2067738 255.501805,32.5021508 253.837528,32.5021508 Z" id="Path" fill="#E3E3E3"></path>
                <path d="M252.351446,33.0199258 L244.578096,33.0199258 C242.98013,21.2426944 232.507314,12.7330875 220.652327,13.5792235 C208.797339,14.4253596 199.639254,24.3360994 199.730138,36.2208971 C199.821022,48.1056949 209.129603,57.875219 220.996144,58.5399551 C232.862685,59.2046913 243.204137,50.5359164 244.621805,38.7356242 L252.354808,38.7356242 C253.933155,38.7356241 255.212657,37.4561215 255.212657,35.877775 C255.212657,34.2994286 253.933155,33.0199259 252.354808,33.0199258 L252.351446,33.0199258 Z" id="Path" fill="#F2F2F2"></path>
                <circle id="Oval" fill="#F5DDC3" cx="222.93241" cy="36.0458838" r="17.4833127"></circle>
                <path d="M225.622151,21.588529 C225.622151,21.588529 237.389765,22.2609642 236.381112,37.0545365" id="Path" stroke="#FFFFFF" stroke-width="4" opacity="0.2"></path>
                <polygon id="Rectangle" fill="#E0E0E0" transform="translate(88.607934, 30.700689) rotate(-80.540000) translate(-88.607934, -30.700689) " points="64.1228908 -9.13941013 113.092977 -9.13941013 113.092977 70.5407876 64.1228908 70.5407876"></polygon>
                <polygon id="Rectangle" fill="#FFFFFF" transform="translate(89.042024, 30.353521) rotate(-80.540000) translate(-89.042024, -30.353521) " points="66.1909981 -8.13666425 111.89305 -8.13666425 111.89305 68.8437066 66.1909981 68.8437066"></polygon>
                <g id="Group" opacity="0.6" transform="translate(77.330037, 15.129790)">
                    <polygon id="Rectangle" fill="#FFCF99" transform="translate(44.141799, 4.669701) rotate(9.460000) translate(-44.141799, -4.669701) " points="39.2447903 1.04527627 49.0388076 1.04527627 49.0388076 8.29412671 39.2447903 8.29412671"></polygon>
                    <polygon id="Rectangle" fill="#303C6C" transform="translate(19.783404, 17.389981) rotate(9.460000) translate(-19.783404, -17.389981) " points="0.978756586 16.2149005 38.588052 16.2149005 38.588052 18.5650611 0.978756586 18.5650611"></polygon>
                    <polygon id="Rectangle" fill="#303C6C" transform="translate(13.854308, 21.960007) rotate(9.460000) translate(-13.854308, -21.960007) " points="0.143355806 21.1766198 27.5652594 21.1766198 27.5652594 22.7433936 0.143355806 22.7433936"></polygon>
                </g>
                <polygon id="Rectangle" fill="#E0E0E0" transform="translate(54.667629, 31.866004) rotate(-80.540000) translate(-54.667629, -31.866004) " points="30.1825855 -7.97409443 79.152672 -7.97409443 79.152672 71.7061033 30.1825855 71.7061033"></polygon>
                <polygon id="Rectangle" fill="#FFFFFF" transform="translate(55.101719, 31.515475) rotate(-80.540000) translate(-55.101719, -31.515475) " points="32.2506928 -6.97471073 77.9527447 -6.97471073 77.9527447 70.0056601 32.2506928 70.0056601"></polygon>
                <g id="Group" opacity="0.6" transform="translate(43.372064, 16.474660)">
                    <polygon id="Rectangle" fill="#FFCF99" transform="translate(44.159969, 4.489001) rotate(9.460000) translate(-44.159969, -4.489001) " points="39.2629604 0.864575382 49.0569777 0.864575382 49.0569777 8.11342581 39.2629604 8.11342581"></polygon>
                    <polygon id="Rectangle" fill="#303C6C" transform="translate(19.801574, 17.209280) rotate(9.460000) translate(-19.801574, -17.209280) " points="0.996926678 16.0341996 38.6062221 16.0341996 38.6062221 18.3843603 0.996926678 18.3843603"></polygon>
                    <polygon id="Rectangle" fill="#303C6C" transform="translate(13.875840, 21.779306) rotate(9.460000) translate(-13.875840, -21.779306) " points="0.164888075 20.9959189 27.5867917 20.9959189 27.5867917 22.5626927 0.164888075 22.5626927"></polygon>
                </g>
                <rect id="Rectangle" fill="#EBEBEB" x="134.826106" y="97.7081829" width="2.05191595" height="135.495674"></rect>
                <polygon id="Path" fill="#D6D8E2" points="132.826106 159.235995 121.250136 149.152831 109.290878 159.235995 109.290878 98.0444005 132.826106 98.0444005"></polygon>
                <polygon id="Path" fill="#FFCF99" points="131.145019 157.21869 121.058492 147.468381 110.635748 157.21869 110.635748 98.0444005 131.145019 98.0444005"></polygon>
            </g>
        </g>
    </g>
</svg>