<?xml version="1.0" encoding="UTF-8"?>
<svg width="272px" height="223px" viewBox="0 0 272 223" version="1.1" xmlns="http://www.w3.org/2000/svg" xmlns:xlink="http://www.w3.org/1999/xlink">
    <!-- Generator: Sketch 52.2 (67145) - http://www.bohemiancoding.com/sketch -->
    <title>undraw_book_lover_mkck (1)</title>
    <desc>Created with Sketch.</desc>
    <defs>
        <linearGradient x1="49.9983096%" y1="100.00595%" x2="49.9983096%" y2="-0.00150157813%" id="linearGradient-1">
            <stop stop-color="#808080" stop-opacity="0.25" offset="0%"></stop>
            <stop stop-color="#808080" stop-opacity="0.12" offset="54%"></stop>
            <stop stop-color="#808080" stop-opacity="0.1" offset="100%"></stop>
        </linearGradient>
    </defs>
    <g id="Symbols" stroke="none" stroke-width="1" fill="none" fill-rule="evenodd">
        <g id="Reading-image">
            <g id="undraw_book_lover_mkck-(1)">
                <polygon id="Path" fill="#303C6C" points="119.278045 189.452736 25.9861857 188.991313 16.7164179 166.95076 49.4944914 164.53865 43.7816324 140.37334 108.61277 131.854972 46.5317635 109.977437 52.015672 108.656716 151.840796 125.165718 146.343259 162.878079 138.485353 183.603438"></polygon>
                <path d="M26.4676617,179.796566 C26.4676617,179.796566 32.5621891,178.817935 36.2189055,183.140221 C36.2189055,183.140221 33.5373134,185.260588 27.7678275,182.324695 L26.4676617,179.796566 Z" id="Path" fill="#303C6C"></path>
                <path d="M26.268506,179.701493 C26.268506,179.701493 22.2505486,184.315496 24.2295425,189.452736 C24.2295425,189.452736 27.5038779,188.229984 27.8606965,182.001499 L26.268506,179.701493 Z" id="Path" fill="#303C6C"></path>
                <path d="M23.681592,172.754212 C23.681592,172.754212 25.9104478,168.677252 34.8258706,174.383937 C34.8258706,174.383937 33.6371476,177.124839 29.6995025,176.902604 C25.7618574,176.680368 24.7217247,174.902486 23.681592,172.754212 Z" id="Path" fill="#303C6C"></path>
                <path d="M22.3417004,171.348143 C22.3417004,171.348143 17.2136317,170.762819 16.7164179,182.440042 C16.7164179,182.440042 19.9674311,183.110239 22.2769743,179.416841 C24.5865176,175.723444 23.6391635,173.651395 22.3417004,171.348143 Z" id="Path" fill="#303C6C"></path>
                <path d="M19.5024876,162.83556 C19.5024876,162.83556 22.2111664,155.429813 32.039801,160.697819 C32.039801,160.697819 29.7954671,167.492783 20.5085683,165.355041 L19.5024876,162.83556 Z" id="Path" fill="#8ED081"></path>
                <path d="M16.7164179,152.391811 C16.7164179,152.391811 21.7404779,145.24378 30.6467662,151.870818 C30.6467662,151.870818 27.5257592,158.581214 17.4776391,154.934259 L16.7164179,152.391811 Z" id="Path" fill="#8ED081"></path>
                <path d="M15.3233831,141.265264 C15.3233831,141.265264 21.4413857,133.716927 30.6467662,141.265264 C30.6467662,141.265264 24.8465819,147.888399 15.3233831,143.193519 L15.3233831,141.265264 Z" id="Path" fill="#8ED081"></path>
                <path d="M15.3233831,131.719581 C15.3233831,131.719581 21.0724157,123.990287 29.2537313,131.308449 C29.2537313,131.308449 22.7676433,138.133252 15.3233831,133.528565 L15.3233831,131.719581 Z" id="Path" fill="#8ED081"></path>
                <path d="M15.3233831,122.629229 C15.3233831,122.629229 21.4754186,112.565587 29.2537313,119.385576 C29.2537313,119.385576 22.6630289,128.035317 15.3233831,124.542152 L15.3233831,122.629229 Z" id="Path" fill="#8ED081"></path>
                <path d="M16.7164179,111.098566 C16.7164179,111.098566 23.1629089,101.094362 30.6467662,108.764252 C30.6467662,108.764252 23.0147137,117.434562 16.7164179,112.93267 L16.7164179,111.098566 Z" id="Path" fill="#8ED081"></path>
                <path d="M18.4588458,102.022146 C18.4588458,102.022146 26.4560657,93.5338553 33.4328358,96.9151948 C33.4328358,96.9151948 25.1000877,105.930308 18.1094527,104.274581 L18.4588458,102.022146 Z" id="Path" fill="#8ED081"></path>
                <path d="M21.5530348,92.745541 C21.5530348,92.745541 30.8250746,82.1628898 36.2189055,85.697736 C36.2189055,85.697736 29.3874627,93.9055834 20.8955224,94.7263682 L21.5530348,92.745541 Z" id="Path" fill="#8ED081"></path>
                <path d="M24.7845822,82.216297 C24.7845822,82.216297 33.0020003,73.380215 39.0049751,75.5738465 C39.0049751,75.5738465 31.9751757,84.7400924 23.681592,84.9751244 L24.7845822,82.216297 Z" id="Path" fill="#8ED081"></path>
                <path d="M29.6224759,72.0733064 C29.6224759,72.0733064 38.1035996,64.2603353 41.7910448,65.6348395 C41.7910448,65.6348395 35.6698859,74.3159184 29.2537313,73.8095222 L29.6224759,72.0733064 Z" id="Path" fill="#8ED081"></path>
                <path d="M33.4328358,63.1164119 C33.4328358,63.1164119 40.6421568,53.6341072 44.5771144,54.3689661 C44.5771144,54.3689661 40.2052282,62.8224683 33.4328358,64.079602 L33.4328358,63.1164119 Z" id="Path" fill="#8ED081"></path>
                <path d="M36.5093757,50.5329608 C36.5093757,50.5329608 43.5554357,43.1681471 47.3631841,43.1840796 C47.3631841,43.1840796 41.8011106,53.025135 36.2189055,52.9347039 L36.5093757,50.5329608 Z" id="Path" fill="#8ED081"></path>
                <path d="M38.3975295,43.1364092 L44.5752362,27.8606965 C44.5752362,27.8606965 44.8832081,41.6692204 37.6119403,45.9701493 L38.3975295,43.1364092 Z" id="Path" fill="#8ED081"></path>
                <path d="M41.8426491,24.9903271 C41.8426491,24.9903271 43.1069561,12.1862542 42.2941873,11.1442786 C42.2941873,11.1442786 47.7513488,21.7899734 41.7910448,30.6467662 L41.8426491,24.9903271 Z" id="Path" fill="#8ED081"></path>
                <path d="M20.0591227,162.480047 C20.0591227,162.480047 12.9569604,158.090932 8.35820896,168.828539 C8.35820896,168.828539 14.6789598,173.012771 20.8955224,165.218556 L20.0591227,162.480047 Z" id="Path" fill="#8ED081"></path>
                <path d="M15.9922982,152.464303 C15.9922982,152.464303 8.03755254,148.828519 4.17910448,159.116225 C4.17910448,159.116225 10.3235509,163.353119 16.7164179,155.064696 L15.9922982,152.464303 Z" id="Path" fill="#8ED081"></path>
                <path d="M15.3233831,142.658299 C15.3233831,142.658299 9.2053805,135.109962 0,142.658299 C0,142.658299 5.80018426,149.281434 15.3233831,144.586554 L15.3233831,142.658299 Z" id="Path" fill="#8ED081"></path>
                <path d="M13.9303483,131.719581 C13.9303483,131.719581 8.18131564,123.990287 0,131.308449 C0,131.308449 6.48608808,138.133252 13.9303483,133.528565 L13.9303483,131.719581 Z" id="Path" fill="#8ED081"></path>
                <path d="M15.3233831,122.200382 C15.3233831,122.200382 10.9339768,112.488732 1.39303483,116.665126 C1.39303483,116.665126 6.55030074,125.276378 14.933723,123.812593 L15.3233831,122.200382 Z" id="Path" fill="#8ED081"></path>
                <path d="M18.1094527,110.964164 C18.1094527,110.964164 13.7796731,101.121832 4.17910448,105.68484 C4.17910448,105.68484 10.05828,114.70634 17.6830135,112.483467 L18.1094527,110.964164 Z" id="Path" fill="#8ED081"></path>
                <path d="M19.5024876,102.302404 C19.5024876,102.302404 17.7816798,90.2347055 9.75124378,89.1542289 C9.75124378,89.1542289 11.4548434,101.880477 18.4212467,104.477612 L19.5024876,102.302404 Z" id="Path" fill="#8ED081"></path>
                <path d="M22.2885572,92.7148259 C22.2885572,92.7148259 21.6491493,78.5058706 15.3233831,78.0099502 C15.3233831,78.0099502 15.5365191,88.7948259 21.5753715,94.7263682 L22.2885572,92.7148259 Z" id="Path" fill="#8ED081"></path>
                <path d="M26.4676617,82.2248413 C26.4676617,82.2248413 24.4789844,71.0202779 18.1094527,69.6517413 C18.1094527,69.6517413 18.8991594,80.5022817 25.8364728,84.9751244 L26.4676617,82.2248413 Z" id="Path" fill="#8ED081"></path>
                <path d="M29.2537313,72.2960583 C29.2537313,72.2960583 29.1923225,60.2735567 25.5878923,58.5074627 C25.5878923,58.5074627 23.3531456,69.39248 28.2097816,73.8308458 L29.2537313,72.2960583 Z" id="Path" fill="#8ED081"></path>
                <path d="M33.4328358,63.2475378 C33.4328358,63.2475378 32.9518786,50.5459945 29.3943224,48.7562189 C29.3943224,48.7562189 28.1779333,58.8080008 32.9009837,64.079602 L33.4328358,63.2475378 Z" id="Path" fill="#8ED081"></path>
                <path d="M37.6119403,52.3772703 C37.6119403,52.3772703 37.5868402,42.6742792 34.4556038,40.39801 C34.4556038,40.39801 31.3431925,51.0267188 35.9772968,54.3283582 L37.6119403,52.3772703 Z" id="Path" fill="#8ED081"></path>
                <path d="M38.8664753,42.9871003 L35.9429247,26.4676617 C35.9429247,26.4676617 31.9715929,40.0040513 39.0049751,45.9701493 L38.8664753,42.9871003 Z" id="Path" fill="#8ED081"></path>
                <path d="M39.041245,25.3532338 C39.041245,25.3532338 31.8957799,13.8189055 32.0420153,12.5373134 C32.0420153,12.5373134 32.8018662,24.6260697 41.7910448,30.6467662 L39.041245,25.3532338 Z" id="Path" fill="#8ED081"></path>
                <path d="M39.8688727,22.2885572 C39.8688727,22.2885572 33.5192256,5.535319 30.6467662,4.17910448 C30.6467662,4.17910448 39.7176906,9.04552129 40.39801,21.8098933 L39.8688727,22.2885572 Z" id="Path" fill="#8ED081"></path>
                <path d="M36.6407887,52.9353234 L36.2189055,52.8023444 C41.4203846,35.2355451 42.7174789,24.0354555 39.874353,21.226613 L40.1756982,20.8955224 C43.1917699,23.8590547 41.9680466,34.9370208 36.6407887,52.9353234 Z" id="Path" fill="#EFC69B"></path>
                <path d="M21.5189352,96.119403 L20.8955224,95.8845417 C21.4482119,94.246039 22.0428116,92.5826686 22.6662244,90.9441659 C28.0935834,76.675653 32.7141727,63.4018467 35.6766935,53.2116308 L36.2189055,52.9353234 C33.251146,63.1448809 28.7117575,76.9270927 23.2791598,91.2149471 C22.6583663,92.823056 22.066386,94.4781372 21.5189352,96.119403 Z" id="Path" fill="#EFC69B"></path>
                <path d="M35.5102978,193.631841 C35.4203159,193.536188 26.3743201,183.634708 20.0671494,166.731411 C16.3715221,156.835224 14.3148006,146.431828 13.9736857,135.909197 C13.5406476,122.755507 16.3807022,108.068632 21.2453502,94.7263682 L21.7739941,95.3276172 C10.8524375,125.272554 15.1912536,150.932225 20.9472851,166.384326 C27.1869694,183.134579 36.1317355,192.92674 36.2189055,193.025126 L35.5102978,193.631841 Z" id="Path" fill="#EFC69B"></path>
                <path d="M172.736318,171.343284 C172.736318,171.343284 166.601064,178.968964 171.472461,190.497053 L122.487855,212.131167 L117.786956,213.134328 L115.621891,203.488545 L117.069778,191.315567 L117.069778,184.662732 L172.736318,171.343284 Z" id="Path" fill="#D5D6DB"></path>
                <polygon id="Path" fill="#303C6C" points="16.7164179 167.13963 85.0187711 154.626866 175.522388 169.115042 119.308995 189.452736"></polygon>
                <polygon id="Path" fill="#303C6C" points="16.7164179 167.13963 85.0187711 154.626866 175.522388 169.115042 119.308995 189.452736"></polygon>
                <path d="M16.5191232,167.164179 C16.5191232,167.164179 10.0876815,179.465191 17.499074,190.826793 L119.474345,213.134328 C119.474345,213.134328 113.144467,203.33564 119.800995,189.734971 L16.5191232,167.164179 Z" id="Path" fill="#303C6C"></path>
                <path d="M16.5191232,167.164179 C16.5191232,167.164179 10.0876815,179.465191 17.499074,190.826793 L119.474345,213.134328 C119.474345,213.134328 113.144467,203.33564 119.800995,189.734971 L16.5191232,167.164179 Z" id="Path" fill="#000000" opacity="0.1"></path>
                <path d="M19.5024876,171.343284 C19.5024876,171.343284 16.3681592,180.646152 19.5024876,186.666667" id="Path" fill="#000000" opacity="0.1"></path>
                <path d="M118.358491,212.208032 L175.102948,188.059701 C175.102948,188.059701 178.276698,188.741858 176.224705,191.061189 C174.172711,193.38052 119.452887,214.527363 119.452887,214.527363 L16.7164179,190.242601 L118.358491,212.208032 Z" id="Path" fill="#303C6C"></path>
                <path d="M118.358491,212.208032 L175.102948,188.059701 C175.102948,188.059701 178.276698,188.741858 176.224705,191.061189 C174.172711,193.38052 119.452887,214.527363 119.452887,214.527363 L16.7164179,190.242601 L118.358491,212.208032 Z" id="Path" fill="#000000" opacity="0.1"></path>
                <path d="M114.228856,192.238806 C114.228856,192.238806 107.960199,198.925373 114.228856,208.955224" id="Path" fill="#000000" opacity="0.1"></path>
                <polygon id="Rectangle" fill="#000000" opacity="0.1" transform="translate(128.855721, 195.721393) rotate(-18.450000) translate(-128.855721, -195.721393) " points="115.622155 195.593863 142.089552 195.574522 142.089287 195.848923 115.621891 195.868264"></polygon>
                <polygon id="Rectangle" fill="#000000" opacity="0.1" transform="translate(130.248756, 197.114428) rotate(-20.820000) translate(-130.248756, -197.114428) " points="114.22914 196.990692 146.268657 196.963784 146.268372 197.238164 114.228856 197.265072"></polygon>
                <polygon id="Rectangle" fill="#000000" opacity="0.1" transform="translate(133.731343, 198.507463) rotate(-22.260000) translate(-133.731343, -198.507463) " points="115.622139 198.389695 151.840796 198.350864 151.840547 198.625231 115.621891 198.664062"></polygon>
                <polygon id="Rectangle" fill="#000000" opacity="0.1" transform="translate(136.517413, 198.507463) rotate(-24.310000) translate(-136.517413, -198.507463) " points="115.62217 198.393239 157.412935 198.347339 157.412656 198.621686 115.621891 198.667586"></polygon>
                <polygon id="Rectangle" fill="#000000" opacity="0.1" transform="translate(138.606965, 198.507463) rotate(-23.610000) translate(-138.606965, -198.507463) " points="115.622175 198.394012 161.59204 198.346559 161.591755 198.620913 115.621891 198.668366"></polygon>
                <polygon id="Rectangle" fill="#000000" opacity="0.1" transform="translate(143.482587, 199.900498) rotate(-23.360000) translate(-143.482587, -199.900498) " points="115.62219 199.790146 171.343284 199.736493 171.342984 200.010849 115.621891 200.064502"></polygon>
                <polygon id="Path" fill="#FFFFFF" opacity="0.3" points="41.7910448 168.806713 90.2683813 158.80597 119.800995 164.346922 80.077123 176.915423"></polygon>
                <path d="M175.41171,168.557214 C175.41171,168.557214 177.927272,169.590308 176.451107,171.186396 C174.974942,172.782484 118.40796,189.452736 118.40796,189.452736 L175.41171,168.557214 Z" id="Path" fill="#303C6C"></path>
                <path d="M199.20398,146.268657 C199.20398,146.268657 193.071141,153.890576 197.94277,165.4199 L148.955842,187.051161 L144.25472,188.059701 L142.089552,178.41519 L143.55916,166.246573 L143.55916,159.586349 L199.20398,146.268657 Z" id="Path" fill="#D5D6DB"></path>
                <polygon id="Path" stroke="#979797" fill="#EFC69B" points="43.1840796 140.669229 111.483706 128.159204 201.99005 142.64738 145.776657 162.985075"></polygon>
                <path d="M42.9884495,140.696517 C42.9884495,140.696517 36.5548795,152.99753 43.9655617,164.359131 L145.931059,186.666667 C145.931059,186.666667 139.604532,176.859665 146.268657,163.264538 L42.9884495,140.696517 Z" id="Path" fill="#EFC69B"></path>
                <path d="M42.9884495,140.696517 C42.9884495,140.696517 36.5548795,152.99753 43.9655617,164.359131 L145.931059,186.666667 C145.931059,186.666667 139.604532,176.859665 146.268657,163.264538 L114.023955,156.217574 L42.9884495,140.696517 Z" id="Path" fill="#EFC69B" opacity="0.1"></path>
                <path d="M45.9701493,144.875622 C45.9701493,144.875622 42.8358209,154.175627 45.9701493,160.199005" id="Path" fill="#000000" opacity="0.1"></path>
                <path d="M146.218927,185.74037 L202.965975,161.59204 C202.965975,161.59204 206.136981,162.274196 204.084993,164.593527 C202.033005,166.912858 147.313321,188.059701 147.313321,188.059701 L44.5771144,163.77494 L146.218927,185.74037 Z" id="Path" fill="#EFC69B"></path>
                <path d="M146.218927,185.74037 L202.965975,161.59204 C202.965975,161.59204 206.136981,162.274196 204.084993,164.593527 C202.033005,166.912858 147.313321,188.059701 147.313321,188.059701 L44.5771144,163.77494 L146.218927,185.74037 Z" id="Path" fill="#000000" opacity="0.1"></path>
                <path d="M142.089552,165.771144 C142.089552,165.771144 135.820896,172.457711 142.089552,182.487562" id="Path" fill="#000000" opacity="0.1"></path>
                <polygon id="Rectangle" fill="#000000" opacity="0.1" transform="translate(155.323383, 169.253731) rotate(-18.450000) translate(-155.323383, -169.253731) " points="142.089817 169.126202 168.557214 169.106861 168.556949 169.381261 142.089552 169.400602"></polygon>
                <polygon id="Rectangle" fill="#000000" opacity="0.1" transform="translate(158.109453, 170.646766) rotate(-20.820000) translate(-158.109453, -170.646766) " points="142.089837 170.52303 174.129353 170.496122 174.129069 170.770502 142.089552 170.79741"></polygon>
                <polygon id="Rectangle" fill="#000000" opacity="0.1" transform="translate(160.199005, 172.039801) rotate(-22.260000) translate(-160.199005, -172.039801) " points="142.089801 171.922033 178.308458 171.883202 178.308209 172.157569 142.089552 172.1964"></polygon>
                <polygon id="Rectangle" fill="#000000" opacity="0.1" transform="translate(162.985075, 172.039801) rotate(-24.310000) translate(-162.985075, -172.039801) " points="142.089831 171.925578 183.880597 171.879678 183.880318 172.154024 142.089552 172.199924"></polygon>
                <polygon id="Rectangle" fill="#000000" opacity="0.1" transform="translate(165.074627, 173.432836) rotate(-23.610000) translate(-165.074627, -173.432836) " points="142.089837 173.319385 188.059701 173.271933 188.059417 173.546286 142.089552 173.593739"></polygon>
                <polygon id="Rectangle" fill="#000000" opacity="0.1" transform="translate(169.950249, 173.432836) rotate(-23.360000) translate(-169.950249, -173.432836) " points="142.089852 173.322484 197.810945 173.268832 197.810646 173.543188 142.089552 173.59684"></polygon>
                <polygon id="Path" fill="#FFFFFF" opacity="0.45" points="68.2587065 142.339051 116.736043 132.338308 146.268657 137.87926 106.544785 150.447761"></polygon>
                <path d="M203.273289,142.089552 C203.273289,142.089552 205.786491,143.122785 204.312853,144.716273 C202.839215,146.309761 146.268657,162.985075 146.268657,162.985075 L203.273289,142.089552 Z" id="Path" fill="#EFC69B"></path>
                <path d="M201.99005,115.621891 C201.99005,115.621891 195.853632,129.307927 200.725953,140.833736 L151.73206,156.401706 L147.041098,157.412935 L144.875622,147.76906 L146.323784,135.598489 L146.323784,128.938705 L201.99005,115.621891 Z" id="Path" fill="#D5D6DB"></path>
                <polygon id="Path" fill="#303C6C" points="45.9701493 110.025202 114.27133 97.5124378 204.776119 112.000614 148.560965 132.338308"></polygon>
                <path d="M45.780388,110.049751 C45.780388,110.049751 39.3382652,122.350764 46.749314,133.712365 L148.719857,156.0199 C148.719857,156.0199 142.390272,146.212898 149.054726,132.620543 L45.780388,110.049751 Z" id="Path" fill="#303C6C"></path>
                <path d="M45.780388,110.049751 C45.780388,110.049751 39.3382652,122.350764 46.749314,133.712365 L148.719857,156.0199 C148.719857,156.0199 142.390272,146.212898 149.054726,132.620543 L45.780388,110.049751 Z" id="Path" fill="#000000" opacity="0.1"></path>
                <path d="M48.7562189,114.228856 C48.7562189,114.228856 45.6218905,123.531725 48.7562189,129.552239" id="Path" fill="#000000" opacity="0.1"></path>
                <path d="M149.005257,156.411202 L205.749715,137.675667 C205.749715,137.675667 208.923464,138.38001 206.871471,140.774778 C204.819478,143.169546 150.099654,158.80597 150.099654,158.80597 L47.3631841,133.731343 L149.005257,156.411202 Z" id="Path" fill="#303C6C"></path>
                <path d="M149.005257,156.411202 L205.749715,137.675667 C205.749715,137.675667 208.923464,138.38001 206.871471,140.774778 C204.819478,143.169546 150.099654,158.80597 150.099654,158.80597 L47.3631841,133.731343 L149.005257,156.411202 Z" id="Path" fill="#000000" opacity="0.1"></path>
                <path d="M143.482587,135.124378 C143.482587,135.124378 137.21393,141.810945 143.482587,151.840796" id="Path" fill="#000000" opacity="0.1"></path>
                <polygon id="Rectangle" fill="#000000" opacity="0.1" transform="translate(158.109453, 140.000000) rotate(-18.450000) translate(-158.109453, -140.000000) " points="144.875887 139.87247 171.343284 139.853129 171.343019 140.12753 144.875622 140.146871"></polygon>
                <polygon id="Rectangle" fill="#000000" opacity="0.1" transform="translate(160.895522, 140.000000) rotate(-20.820000) translate(-160.895522, -140.000000) " points="144.875906 139.876264 176.915423 139.849356 176.915139 140.123736 144.875622 140.150644"></polygon>
                <polygon id="Rectangle" fill="#000000" opacity="0.1" transform="translate(162.985075, 141.393035) rotate(-22.260000) translate(-162.985075, -141.393035) " points="144.875871 141.275267 181.094527 141.236436 181.094279 141.510803 144.875622 141.549634"></polygon>
                <polygon id="Rectangle" fill="#000000" opacity="0.1" transform="translate(165.771144, 141.393035) rotate(-24.310000) translate(-165.771144, -141.393035) " points="144.875901 141.278812 186.666667 141.232911 186.666387 141.507258 144.875622 141.553158"></polygon>
                <polygon id="Rectangle" fill="#000000" opacity="0.1" transform="translate(167.860697, 142.786070) rotate(-23.610000) translate(-167.860697, -142.786070) " points="144.875907 142.672619 190.845771 142.625166 190.845487 142.89952 144.875622 142.946973"></polygon>
                <polygon id="Rectangle" fill="#000000" opacity="0.1" transform="translate(172.736318, 142.786070) rotate(-23.360000) translate(-172.736318, -142.786070) " points="144.875921 142.675718 200.597015 142.622065 200.596716 142.896422 144.875622 142.950074"></polygon>
                <polygon id="Path" fill="#FFFFFF" opacity="0.3" points="71.0447761 111.692285 119.522113 101.691542 149.054726 107.232494 109.330854 119.800995"></polygon>
                <path d="M206.058263,112.835821 C206.058263,112.835821 208.574182,113.868915 207.097807,115.465003 C205.621433,117.061091 149.054726,133.731343 149.054726,133.731343 L206.058263,112.835821 Z" id="Path" fill="#303C6C"></path>
                <path d="M84.7610132,29.2668878 C84.7610132,29.2668878 74.0769915,28.6547748 75.3253351,35.780947 C75.3253351,35.780947 75.0751041,37.039922 76.2756507,37.6119403 C76.2756507,37.6119403 76.2953318,37.0773437 77.3721687,37.2617795 C77.7564369,37.324536 78.1473231,37.3424885 78.5361648,37.3152392 C79.0603252,37.2811229 79.5586303,37.0859982 79.9560151,36.7592588 C79.9560151,36.7592588 82.9615991,35.5778004 84.1312183,30.9054263 C84.1312183,30.9054263 84.9971864,29.8870199 84.9746937,29.6250676 L83.1640332,30.3574649 C83.1640332,30.3574649 83.7797702,31.5950559 83.2961776,32.6241543 C83.2961776,32.6241543 83.2371344,30.4029056 82.8884979,30.4536922 C82.8182082,30.4536922 81.9522402,30.8840425 81.9522402,30.8840425 C81.9522402,30.8840425 83.0122076,33.0411396 82.210906,34.6075076 C82.210906,34.6075076 82.5145571,31.9505626 81.6204732,31.0390755 L80.3496369,31.7447429 C80.3496369,31.7447429 81.5895457,33.9713377 80.7488819,35.788966 C80.7488819,35.788966 80.9653739,33.0010449 80.0825364,31.9158139 L78.9297867,32.7711684 C78.9297867,32.7711684 80.0965943,34.9656873 79.3852634,36.4732496 C79.3852634,36.4732496 79.2924811,33.2282484 78.6823672,32.982334 C78.6823672,32.982334 77.6730083,33.8269966 77.5211827,34.1744844 C77.5211827,34.1744844 78.3196728,35.7782741 77.8220223,36.6095717 C77.8220223,36.6095717 77.5211827,34.4471286 77.2597054,34.4364367 C77.2597054,34.4364367 76.2559696,35.8691555 76.151941,36.8421212 C76.2005529,35.9350475 76.4981403,35.0558842 77.0150975,34.2920956 C76.4366068,34.3961487 75.9028914,34.6591443 75.4799723,35.0485497 C75.4799723,35.0485497 75.6346094,34.0354892 77.2653285,33.9472808 C77.2653285,33.9472808 78.094746,32.8593768 78.3168612,32.7952252 C78.3168612,32.7952252 76.6945768,32.664249 75.7133338,33.0785614 C75.7133338,33.0785614 76.5793019,32.1243065 78.6120776,32.5439648 L79.7367114,31.6618805 C79.7367114,31.6618805 77.6055303,31.3945822 76.7002,31.6912833 C76.7002,31.6912833 77.7432979,30.8466207 80.0431742,31.4614068 L81.283083,30.7584123 C81.283083,30.7584123 79.4639877,30.3868677 78.3815276,30.5205168 C78.3815276,30.5205168 79.523031,29.9351336 81.6457774,30.5686305 L82.528615,30.1917399 C82.528615,30.1917399 81.1987355,29.9431525 80.8079252,29.9030578 C80.4171149,29.862963 80.3974338,29.7613897 80.3974338,29.7613897 C81.2415104,29.629598 82.1074777,29.7221012 82.8997442,30.028688 C82.8997442,30.028688 84.7975638,29.3791531 84.7610132,29.2668878 Z" id="Path" fill="#8ED081"></path>
                <path d="M231.043439,59.913654 C231.043439,59.913654 220.343992,59.3015409 221.594138,66.4277132 C221.594138,66.4277132 221.343546,67.6866881 222.545826,68.2587065 C222.545826,68.2587065 222.565535,67.7241099 223.643927,67.9085457 C224.028917,67.9698403 224.420182,67.9877843 224.809604,67.9620054 C225.329748,67.9256263 225.823571,67.7306045 226.217426,67.4060249 C226.217426,67.4060249 229.230164,66.2245665 230.398657,61.5521925 C230.398657,61.5521925 231.265875,60.533786 231.24335,60.2718337 L229.435706,61.004231 C229.435706,61.004231 230.052332,62.2418221 229.568042,63.2709205 C229.568042,63.2709205 229.508913,61.0496717 229.162589,61.1004584 C229.092198,61.1004584 228.222164,61.5308086 228.222164,61.5308086 C228.222164,61.5308086 229.283662,63.6879058 228.484019,65.2542737 C228.484019,65.2542737 228.788108,62.5973288 227.889918,61.6858416 L226.617247,62.3915091 C226.617247,62.3915091 227.858946,64.6181038 227.017068,66.4357322 C227.017068,66.4357322 227.233873,63.6478111 226.349761,62.56258 L225.198162,63.4179345 C225.198162,63.4179345 226.363839,65.6124534 225.651481,67.1200158 C225.651481,67.1200158 225.558565,63.8750146 224.94757,63.6291002 C224.94757,63.6291002 223.93957,64.4737628 223.784709,64.8212505 C223.784709,64.8212505 224.584352,66.4250402 224.088799,67.2563379 C224.088799,67.2563379 223.784709,65.0938948 223.52567,65.0832028 C223.52567,65.0832028 222.520485,66.5159217 222.416306,67.4888874 C222.465051,66.5814301 222.764108,65.7020613 223.283525,64.9388618 C222.703467,65.0431686 222.16815,65.3060917 221.743367,65.6953159 C221.743367,65.6953159 221.901043,64.6822554 223.531301,64.594047 C223.531301,64.594047 224.361916,63.506143 224.584352,63.4393184 C224.584352,63.4393184 222.962541,63.3110152 221.977066,63.7253276 C221.977066,63.7253276 222.844284,62.7710727 224.879995,63.190731 L226.006252,62.3086466 C226.006252,62.3086466 223.869179,62.0413484 222.965357,62.3380495 C222.965357,62.3380495 224.007145,61.4933869 226.313157,62.1081729 L227.552041,61.4051784 C227.552041,61.4051784 225.730319,61.0336338 224.646296,61.167283 C224.646296,61.167283 225.789448,60.5818997 227.915259,61.2153967 L228.802187,60.8385061 C228.802187,60.8385061 227.467571,60.5899187 227.076197,60.5498239 C226.684822,60.5097292 226.665113,60.4081558 226.665113,60.4081558 C227.510362,60.2746702 228.378067,60.3672253 229.171036,60.6754541 C229.171036,60.6754541 231.077227,60.0259193 231.043439,59.913654 Z" id="Path" fill="#303C6C" opacity="0.1"></path>
                <path d="M101.691542,74.4551542 C101.691542,74.4551542 97.2951812,64.8284028 91.6988471,69.5730761 C91.6988471,69.5730761 90.4909097,69.9993115 90.5493154,71.3369055 C90.5493154,71.3369055 91.0139067,71.0817251 91.3457577,72.1136635 C91.4697205,72.4784513 91.6336631,72.8266673 91.8342422,73.1512103 C92.1058703,73.5911415 92.5056252,73.9257896 92.9731546,74.1046316 C92.9731546,74.1046316 95.381065,76.1180331 99.9712271,74.7439847 C99.9712271,74.7439847 101.253499,74.9767317 101.463229,74.8140893 L99.9977751,73.6167042 C99.9977751,73.6167042 99.2013329,74.7860475 98.0916234,74.8898021 C98.0916234,74.8898021 99.9924655,73.7036338 99.7880453,73.4288241 C99.7455684,73.3727405 98.9916031,72.8315337 98.9916031,72.8315337 C98.9916031,72.8315337 97.6084484,74.8589561 95.8828236,74.9627108 C95.8828236,74.9627108 98.3252464,73.8690805 98.7022291,72.6212202 L97.5075657,71.8753082 C97.5075657,71.8753082 96.1456495,74.0962191 94.1837468,74.2925117 C94.1837468,74.2925117 96.7005043,73.0558681 97.2341206,71.732295 L95.9651226,71.1714589 C95.9651226,71.1714589 94.5978968,73.3082444 92.9625354,73.4624743 C92.9625354,73.4624743 95.7341544,71.7210783 95.6651294,71.0620959 C95.6651294,71.0620959 94.4678112,70.6190354 94.0961382,70.6610981 C94.0961382,70.6610981 93.0820017,72.1725513 92.126271,72.1725513 C92.126271,72.1725513 93.8598603,70.8013071 93.753668,70.5797768 C93.753668,70.5797768 92.0492816,70.4395678 91.1519567,70.8601949 C91.96054,70.4356925 92.860296,70.2423291 93.7616324,70.2993588 C93.4040482,69.8489745 92.9298073,69.5185985 92.3970614,69.3487416 C92.3970614,69.3487416 93.3474825,68.9673731 94.1731276,70.3386173 C94.1731276,70.3386173 95.5005313,70.504064 95.657165,70.6639023 C95.657165,70.6639023 95.022666,69.1889034 94.2129497,68.546746 C94.2129497,68.546746 95.4394707,68.8075348 95.9996351,70.7900904 L97.2872167,71.328493 C97.2872167,71.328493 96.5465255,69.3319166 95.8642399,68.700976 C95.8642399,68.700976 97.0748321,69.1748825 97.6031388,71.5051564 L98.7818733,72.2230266 C98.7818733,72.2230266 98.2694955,70.4479804 97.6535802,69.5758803 C97.6535802,69.5758803 98.6863003,70.271317 99.1137243,72.4417526 L99.8491059,73.0194138 C99.8491059,73.0194138 99.4508848,71.732295 99.3181444,71.3733599 C99.1854041,71.0144248 99.2517742,70.9415161 99.2517742,70.9415161 C99.7568066,71.6072964 100.076672,72.408265 100.175647,73.2549649 C100.175647,73.2549649 101.595969,74.5392796 101.691542,74.4551542 Z" id="Path" fill="#303C6C" opacity="0.1"></path>
                <path d="M207.562189,46.593423 C207.562189,46.593423 203.168413,36.9682791 197.569336,41.7121601 C197.569336,41.7121601 196.364035,42.1383243 196.419787,43.4756951 C196.419787,43.4756951 196.88704,43.223361 197.216241,44.2523233 C197.33998,44.6185439 197.504873,44.9677649 197.707389,45.2925006 C197.978044,45.7315325 198.377011,46.0652558 198.843664,46.242959 C198.843664,46.242959 201.254267,48.2560244 205.841847,46.8850091 C205.841847,46.8850091 207.124139,47.1149135 207.336527,46.9522982 L205.879015,45.7523094 C205.879015,45.7523094 205.08256,46.9242611 203.975488,47.0279984 C203.975488,47.0279984 205.873705,45.8392245 205.669282,45.5644607 C205.626804,45.5083864 204.872827,44.96727 204.872827,44.96727 C204.872827,44.96727 203.492305,46.9943539 201.763998,47.0980912 C201.763998,47.0980912 204.209114,46.0046435 204.586103,44.7597953 L203.372837,44.0196152 C203.372837,44.0196152 202.013554,46.2373516 200.048966,46.4364152 C200.048966,46.4364152 202.565763,45.1971744 203.102042,43.8738222 L201.830369,43.3130798 C201.830369,43.3130798 200.463122,45.4523122 198.83039,45.6037126 C198.83039,45.6037126 201.599398,43.8626074 201.530371,43.2065387 C201.530371,43.2065387 200.335689,42.7607485 199.96401,42.8056079 C199.96401,42.8056079 198.949858,44.314005 197.991457,44.314005 C197.991457,44.314005 199.727729,42.9429898 199.621535,42.7214965 C199.621535,42.7214965 197.917122,42.5813109 197.017128,43.0018677 C197.825683,42.5773116 198.725485,42.3839737 199.626845,42.4411253 C199.270594,41.9905295 198.797097,41.6600889 198.264907,41.4906668 C198.264907,41.4906668 199.215343,41.109362 200.041001,42.4803772 C200.041001,42.4803772 201.368426,42.6486 201.525062,42.8084116 C201.525062,42.8084116 200.890553,41.3308552 200.078169,40.6888051 C200.078169,40.6888051 201.304709,40.9523541 201.864882,42.9457935 L203.155139,43.4841062 C203.155139,43.4841062 202.414436,41.4850594 201.73214,40.8542242 C201.73214,40.8542242 202.942751,41.3280515 203.468411,43.6579364 L204.649819,44.3756867 C204.649819,44.3756867 204.134779,42.6037406 203.518854,41.7289824 C203.518854,41.7289824 204.554245,42.424303 204.979021,44.5943762 L205.714414,45.1719409 C205.714414,45.1719409 205.318841,43.8850371 205.183444,43.5261619 C205.048047,43.1672867 205.117073,43.0971939 205.117073,43.0971939 C205.620676,43.76348 205.939557,44.5641376 206.038306,45.4102565 C206.038306,45.4102565 207.479889,46.6831418 207.562189,46.593423 Z" id="Path" fill="#303C6C" opacity="0.1"></path>
                <path d="M221.492537,92.5652866 C221.492537,92.5652866 217.1019,82.9385879 211.498862,87.6818535 C211.498862,87.6818535 210.294422,88.1079625 210.350134,89.4451597 C210.350134,89.4451597 210.817053,89.1928583 211.14602,90.2216872 C211.268809,90.5877391 211.432693,90.9369123 211.634163,91.2617295 C211.904625,91.7007045 212.303307,92.0343845 212.769627,92.2120647 C212.769627,92.2120647 215.178508,94.2276722 219.765465,92.8540315 C219.765465,92.8540315 221.044188,93.0867094 221.256424,92.9213118 L219.791994,91.724282 C219.791994,91.724282 218.996108,92.8960817 217.887174,92.9998056 C217.887174,92.9998056 219.784035,91.8111858 219.579758,91.5364577 C219.537311,91.4803907 218.783872,90.9393444 218.783872,90.9393444 C218.783872,90.9393444 217.404336,92.9661654 215.677264,93.0726926 C215.677264,93.0726926 218.120634,91.9765834 218.497353,90.7318967 L217.300871,89.986206 C217.300871,89.986206 215.942559,92.206458 213.979374,92.4026924 C213.979374,92.4026924 216.494373,91.1636123 217.03027,89.8404318 L215.759505,89.2797621 C215.759505,89.2797621 214.393234,91.4159137 212.761668,91.5700979 C212.761668,91.5700979 215.531351,89.8292184 215.462375,89.1704316 C215.462375,89.1704316 214.265893,88.7246992 213.894479,88.7695527 C213.894479,88.7695527 212.881051,90.2777542 211.923335,90.2777542 C211.923335,90.2777542 213.658366,88.9069168 213.552248,88.6854523 C213.552248,88.6854523 211.849052,88.5452848 210.949701,88.9657871 C211.758714,88.541551 212.658658,88.3482661 213.560207,88.4051174 C213.203708,87.953877 212.729495,87.6233873 212.196589,87.4547823 C212.196589,87.4547823 213.146346,87.0707235 213.971415,88.4443643 C213.971415,88.4443643 215.297891,88.6097619 215.454416,88.7695527 C215.454416,88.7695527 214.82036,87.2949914 214.011209,86.6502213 C214.011209,86.6502213 215.236873,86.913736 215.796647,88.9069168 L217.083329,89.4451597 C217.083329,89.4451597 216.343155,87.4463722 215.661346,86.8184222 C215.661346,86.8184222 216.871093,87.2893847 217.396377,89.6217707 L218.576942,90.3366245 C218.576942,90.3366245 218.062269,88.5649083 217.446784,87.6902636 C217.446784,87.6902636 218.481435,88.385494 218.908561,90.5580891 L219.643429,91.1187587 C219.643429,91.1187587 219.245486,89.8320218 219.112838,89.4731932 C218.980191,89.1143646 219.046514,89.0442809 219.046514,89.0442809 C219.550969,89.7097199 219.869773,90.5106516 219.967089,91.3570434 C219.967089,91.3570434 221.410296,92.649387 221.492537,92.5652866 Z" id="Path" fill="#303C6C" opacity="0.1"></path>
                <ellipse id="Oval" fill="#303C6C" opacity="0.1" cx="55.0248756" cy="215.223881" rx="6.26865672" ry="1"></ellipse>
                <ellipse id="Oval" fill="#303C6C" opacity="0.1" cx="14.6268657" cy="202.686567" rx="6.26865672" ry="1"></ellipse>
                <ellipse id="Oval" fill="#303C6C" opacity="0.1" cx="87.0646766" cy="222.189055" rx="6.26865672" ry="1"></ellipse>
                <ellipse id="Oval" fill="#303C6C" opacity="0.1" cx="247.263682" cy="205.472637" rx="6.26865672" ry="1"></ellipse>
                <ellipse id="Oval" fill="#303C6C" opacity="0.1" cx="195.721393" cy="201.293532" rx="6.26865672" ry="1"></ellipse>
                <ellipse id="Oval" fill="#303C6C" opacity="0.1" cx="162.288557" cy="217.313433" rx="7.66169154" ry="1.39303483"></ellipse>
                <path d="M164.853135,204.776119 C164.853135,204.776119 155.278238,209.964242 160.225015,216.075404 C160.225015,216.075404 160.690356,217.401611 162.035799,217.308777 C162.035799,217.308777 161.767722,216.794209 162.794507,216.383084 C163.159859,216.234967 163.507094,216.041748 163.828879,215.80751 C164.263701,215.492244 164.588663,215.036892 164.754503,214.51048 C164.754503,214.51048 166.71197,211.762579 165.194554,206.6779 C165.194554,206.6779 165.391818,205.240292 165.219844,205.006879 L164.056491,206.680553 C164.056491,206.680553 165.257779,207.526673 165.396876,208.770655 C165.396876,208.770655 164.132362,206.683205 163.879459,206.913965 C163.823821,206.961709 163.302841,207.829048 163.302841,207.829048 C163.302841,207.829048 165.38676,209.311748 165.54103,211.237401 C165.54103,211.237401 164.367562,208.539895 163.100519,208.155295 L162.374688,209.513331 C162.374688,209.513331 164.650813,210.966854 164.903715,213.152444 C164.903715,213.152444 163.581034,210.380671 162.230534,209.821011 L161.696909,211.255968 C161.696909,211.255968 163.892105,212.7201 164.094427,214.539656 C164.094427,214.539656 162.258353,211.497337 161.598277,211.592824 C161.598277,211.592824 161.183517,212.940251 161.239155,213.35668 C161.239155,213.35668 162.789449,214.444169 162.817268,215.513092 C162.817268,215.513092 161.385839,213.616616 161.165813,213.74128 C161.165813,213.74128 161.074768,215.648366 161.514819,216.640369 C161.514819,216.640369 160.756111,215.223979 160.880033,213.74128 C160.436499,214.15264 160.117384,214.691086 159.961997,215.29029 C159.961997,215.29029 159.549765,214.242586 160.907853,213.277107 C160.907853,213.277107 161.036833,211.794408 161.193633,211.611391 C161.193633,211.611391 159.724268,212.364677 159.099598,213.287717 C159.099598,213.287717 159.32974,211.911114 161.322613,211.226791 L161.828419,209.773268 C161.828419,209.773268 159.835545,210.659174 159.220992,211.438984 C159.220992,211.438984 159.663571,210.072991 161.985218,209.417844 L162.673114,208.091637 C162.673114,208.091637 160.902795,208.717607 160.037867,209.417844 C160.037867,209.417844 160.70806,208.242825 162.885552,207.701732 L163.444467,206.866222 C163.444467,206.866222 162.159721,207.346309 161.800599,207.518716 C161.441477,207.691123 161.370665,207.606245 161.370665,207.606245 C162.027105,207.023901 162.824612,206.643795 163.674608,206.508146 C163.674608,206.508146 164.941651,204.866301 164.853135,204.776119 Z" id="Path" fill="#8ED081"></path>
                <path d="M195.723119,103.67204 C193.93684,98.7890883 184.104115,98.3301953 179.837805,99.5749771 C176.806048,100.462537 170.414777,101.462759 167.000636,101.965618 L166.7794,101.754032 C167.221872,101.622135 167.232798,101.297887 167.178171,100.817011 C167.146374,100.183244 167.155498,99.5480683 167.205484,98.91549 C169.29767,99.5694814 171.160425,98.0224347 171.160425,98.0224347 C173.618606,96.9232896 172.957629,92.2189487 173.427414,90.9329489 C173.779754,89.971197 174.159406,84.3051041 174.328747,81.4803013 L174.364255,81.4803013 L174.383374,80.5322887 C174.407956,80.1228571 174.418881,79.8837931 174.418881,79.8837931 C174.418881,79.8837931 174.659236,72.9756663 175.129022,71.5770042 C175.566032,70.2910045 175.921103,63.8115443 175.975729,62.7838436 C175.975729,62.695912 175.975729,62.6491983 175.975729,62.6491983 L175.940222,62.0501643 C175.964804,61.6132541 175.975729,61.1268824 175.972998,60.61578 C175.972998,58.2663574 175.729911,55.3069093 175.699866,54.8287811 C175.699866,54.7600846 175.699866,54.6776487 175.699866,54.5787256 C175.718986,53.5757558 175.593345,48.5526628 171.346154,46.6538897 C169.781112,45.9504368 167.899238,45.1123387 166.077452,44.2962235 C165.607667,40.2156474 164.534261,36.1570542 164.627125,32.0462516 C164.627125,31.4279825 164.681752,30.8097134 164.741841,30.1941922 C164.741841,30.3728033 164.722721,30.5541622 164.71999,30.7437647 C164.71999,31.1422048 164.71999,31.5433928 164.71999,31.9418329 C164.881137,26.8005818 166.812175,21.6318521 166.631909,16.6005155 C166.615521,17.0923829 166.580014,17.5869982 166.533582,18.0816135 C166.627882,16.3798136 166.450839,14.6737972 166.00917,13.028294 C165.845291,12.448495 165.624054,11.8494609 165.151537,11.4620123 C164.7049,11.1499725 164.192674,10.9459092 163.654778,10.8657261 C162.362327,10.5328966 161.049312,10.2868784 159.724419,10.1292989 C159.523092,9.50930896 159.224323,8.92577753 158.839474,8.40089325 C156.069923,4.5758684 151.967492,0.981664007 147.116681,0.157305202 C144.683081,-0.2548742 141.883486,0.0886086354 140.228311,1.83899716 C140.055459,1.9927645 139.893037,2.15800604 139.742137,2.33361245 C138.851729,3.40253103 138.469345,4.80668886 137.557087,5.87285958 C137.496998,5.94430401 137.428715,6.01025272 137.363164,6.07894928 C135.576885,7.68644895 132.793678,8.0216882 130.808014,9.46431611 C130.458131,9.72329086 130.130164,10.0109673 129.827472,10.3243971 C129.027368,11.1220798 128.309901,11.9994906 127.686123,12.9431103 C126.792984,14.2071271 125.875263,15.5233533 125.591207,17.0319299 C125.020362,20.0545789 127.066115,22.9205997 127.445768,25.9624837 C128.292475,32.7689395 120.805947,38.8087417 122.223498,45.5245181 C122.601753,47.1743828 123.437033,48.6826144 124.632516,49.8743847 C121.712743,52.5343158 119.227249,55.1145589 119.227249,55.1145589 L119.227249,55.2684392 L118.765657,55.2684392 L118.812089,55.8180117 L118.765657,55.8180117 L119.019669,58.7994427 L118.765657,63.1410658 C118.765657,63.1410658 118.765657,63.1877794 118.765657,63.275711 L118.765657,63.2976939 L118.765657,63.415852 C118.765657,63.415852 118.765657,63.4625657 118.765657,63.5504973 L118.782045,63.5504973 C118.866715,65.1415098 119.202667,70.8625599 119.601438,72.0688716 C120.071224,73.4675337 120.308848,80.3756605 120.308848,80.3756605 C120.308848,80.3756605 120.827798,90.1388166 121.303046,91.4303121 C121.778294,92.7218075 121.10366,97.4124091 123.570035,98.5197978 C124.291562,99.076611 125.145854,99.4329065 126.047336,99.5529942 C125.921696,100.580695 126.000904,101.325366 126.407869,101.558934 C126.582061,101.661958 126.779446,101.718695 126.981445,101.723806 C126.81411,101.973487 126.665305,102.235244 126.536241,102.506947 C125.55729,102.404121 124.595383,102.176038 123.673825,101.828224 C121.024452,100.729079 112.232357,98.256003 109.67858,99.9954001 C107.124803,101.734797 100.97935,103.31207 103.817183,110.313624 C106.655017,117.315179 107.976972,117.491042 107.976972,117.491042 C108.85049,118.129005 109.616774,118.903643 110.246693,119.785507 C111.098862,121.074255 119.038788,124.022711 121.024452,124.022711 C121.868441,124.00963 122.712381,124.051854 123.550916,124.149113 C123.550916,124.149113 121.395911,126.050634 121.682698,127.155275 C121.969486,128.259916 121.027183,137.102538 121.027183,137.102538 C121.027183,137.102538 123.212234,139.317315 124.146342,136.412824 L124.179118,136.45679 C124.353922,136.695854 125.298956,137.775764 127.077041,136.412824 C127.804745,135.857392 128.577714,135.364695 129.387731,134.93997 L137.996828,133.714423 C138.894389,133.657983 139.794367,133.651561 140.692634,133.695188 C142.05829,133.80785 143.399364,132.994483 144.24334,132.365222 C146.026887,133.046692 148.03167,133.791363 148.984899,134.063402 C150.918668,134.612974 159.806359,137.011858 161.884888,136.261692 C162.316944,136.088858 162.701116,135.813595 163.004726,135.459316 L164.987659,135.522517 L164.059012,135.709371 C164.059012,135.709371 165.867141,135.739598 168.325323,135.772572 L168.221533,135.833025 L171.305185,135.805547 C175.817313,135.846764 180.886629,135.860504 181.553069,135.709371 C182.596431,135.475803 188.018086,135.640675 189.615904,135.709371 L190.061108,135.709371 C190.061108,135.709371 196.0181,134.514051 193.559919,128.433031 C191.669851,123.761664 185.860349,122.40422 183.28199,122.030511 C184.008519,121.884874 184.63399,121.772212 185.049149,121.706263 C186.849084,121.431477 190.345164,119.782759 190.629221,119.219447 C190.913277,118.656136 193.843976,117.021157 194.600549,116.089632 C195.357123,115.158106 197.517591,108.554992 195.723119,103.67204 Z M146.381958,117.337161 L146.089707,117.433337 L145.893053,117.499285 L145.516132,117.872995 C145.215687,117.669653 144.893392,117.45532 144.557441,117.235491 C145.150136,117.271213 145.759218,117.306935 146.381958,117.337161 Z" id="Shape" fill="url(#linearGradient-1)" fill-rule="nonzero"></path>
                <path d="M164.378109,87.696275 C164.378109,87.696275 168.536828,98.5185945 170.90159,97.4363625 C173.266351,96.3541306 172.624876,91.7546448 173.076083,90.4938446 C173.52729,89.2330443 174.027424,79.671525 174.027424,79.671525 C174.027424,79.671525 174.255746,72.9075753 174.706953,71.5385519 C175.125543,70.2804572 175.465308,63.9358724 175.522388,62.9375134 C175.522388,62.8509349 175.522388,62.80494 175.522388,62.80494 L175.073899,54.9587583 L172.535178,54.3283582 L166.647737,56.4928221 L165.832302,61.1274805 L165.514282,62.9375134 L165.378376,63.7086037 L164.378109,87.696275 Z" id="Path" fill="#F5DDC3"></path>
                <path d="M165.771144,86.3681592 C165.771144,86.3681592 169.667372,89.9297266 170.841578,90.2426677 C172.015783,90.5556088 172.736318,93.3333333 172.736318,93.3333333" id="Path" fill="#000000" opacity="0.1"></path>
                <path d="M130.945274,89.0893098 C130.945274,89.0893098 126.786555,99.9116293 124.421793,98.8293974 C122.057032,97.7471654 122.698507,93.1476796 122.2473,91.8868794 C121.796093,90.6260792 121.295959,81.0645598 121.295959,81.0645598 C121.295959,81.0645598 121.067637,74.3006101 120.61643,72.9315867 C120.19784,71.673492 119.858075,65.3289072 119.800995,64.3305482 C119.800995,64.2439697 119.800995,64.1979748 119.800995,64.1979748 L120.252202,56.3517931 L122.790923,55.721393 L128.678364,57.8858569 L129.493799,62.5205153 L129.811819,64.3305482 L129.947725,65.1016385 L130.945274,89.0893098 Z" id="Path" fill="#F5DDC3"></path>
                <rect id="Rectangle" fill="#3E373A" x="149.054726" y="30.6467662" width="9.75124378" height="13.9303483"></rect>
                <rect id="Rectangle" fill="#000000" opacity="0.1" x="149.054726" y="30.6467662" width="9.75124378" height="13.9303483"></rect>
                <path d="M129.01211,99.7524385 C129.01211,99.7524385 125.855543,103.167213 127.026746,103.787355 C128.197949,104.407498 135.77425,116.030507 135.77425,116.030507 C135.77425,116.030507 160.658926,119.046049 165.351851,114.521406 C170.044776,109.996763 169.950106,101.913621 169.950106,101.913621 C169.950106,101.913621 166.179537,102.712087 165.768399,102.278254 C165.357261,101.84442 163.098706,99.7524385 163.098706,99.7524385 C163.098706,99.7524385 131.175995,97.8467653 129.01211,99.7524385 Z" id="Path" fill="#1E1E24"></path>
                <path d="M174.121743,54.6762736 L165.931039,61.3054821 L163.454716,61.4877853 L162.545548,61.5540774 L147.275346,62.6865672 L131.439985,61.515407 L129.083793,61.3413903 L126.080535,61.1204167 L119.800995,55.0436422 C119.800995,55.0436422 124.245817,50.2264174 128.139132,46.975343 C129.673523,45.6909339 131.123278,44.6523579 132.179879,44.2435567 L132.360074,44.1800268 C133.024662,43.9178217 133.618007,43.4993265 134.091043,42.9591475 C137.165287,39.7522679 140.007461,31.8386503 140.007461,31.8386503 C140.007461,31.8386503 153.568537,24.7509215 151.930396,34.0483865 C150.292255,43.3458514 158.02701,41.0477258 158.02701,41.0477258 L160.577049,42.2244103 L161.584506,42.691217 L164.153656,43.8817124 L169.949944,46.5720662 C174.498515,48.6906507 174.121743,54.6762736 174.121743,54.6762736 Z" id="Path" fill="#F5DDC3"></path>
                <circle id="Oval" fill="#000000" opacity="0.1" cx="147.661692" cy="27.8606965" r="12.5373134"></circle>
                <path d="M175.255905,64.079602 L119.800995,64.079602 C119.800995,63.9902947 119.800995,63.9428501 119.800995,63.9428501 L120.259688,55.8493736 C120.259688,55.8493736 124.758198,50.9821243 128.698539,47.6972892 L163.515015,46.3018622 L165.134258,44.5771144 L171.000558,47.2954062 C175.606833,49.4332003 175.236562,55.4809809 175.236562,55.4809809 C175.236562,55.4809809 175.866575,62.4888152 175.255905,64.079602 Z" id="Path" fill="#000000" opacity="0.1"></path>
                <path d="M175.255905,64.079602 L119.800995,64.079602 C119.800995,63.9902947 119.800995,63.9428501 119.800995,63.9428501 L120.259688,55.8493736 C120.259688,55.8493736 124.758198,50.9821243 128.698539,47.6972892 L163.515015,46.3018622 L165.134258,44.5771144 L171.000558,47.2954062 C175.606833,49.4332003 175.236562,55.4809809 175.236562,55.4809809 C175.236562,55.4809809 175.866575,62.4888152 175.255905,64.079602 Z" id="Path" fill="#F2E9E4"></path>
                <path d="M138.562286,41.4273983 C138.562286,41.4273983 147.269819,52.6117794 158.867944,41.1972784 C170.46607,29.7827775 160.152346,66.6574102 160.152346,66.6574102 L135.124378,69.6517413 L138.562286,41.4273983 Z" id="Path" fill="#000000" opacity="0.1"></path>
                <path d="M138.562286,41.4273983 C138.562286,41.4273983 147.269819,52.6117794 158.867944,41.1972784 C170.46607,29.7827775 160.152346,66.6574102 160.152346,66.6574102 L135.124378,69.6517413 L138.562286,41.4273983 Z" id="Path" fill="#F2E9E4"></path>
                <path d="M162.655403,43.6323267 L163.5866,57.5116854 L164.58451,62.1299884 L165.346146,65.6616318 C165.346146,65.6616318 167.291931,92.8281199 166.735992,94.1864443 C166.180054,95.5447687 167.013962,96.6314283 167.130709,97.3540568 C167.247456,98.0766854 167.013962,99.8914068 167.105691,100.706401 C167.197421,101.521396 167.105691,101.88271 164.976447,101.592029 C162.847202,101.301348 159.878489,100.796051 159.878489,100.796051 C159.878489,100.796051 152.373318,101.339381 149.779864,100.434737 C147.18641,99.5300925 142.274692,99.5273759 142.274692,99.5273759 C142.274692,99.5273759 134.861251,99.7093914 132.454037,99.4377265 C130.046822,99.1660616 128.745926,102.336391 127.17262,101.42903 C125.599313,100.521669 129.023895,91.7414604 130.135772,89.2041104 C131.24765,86.6667604 128.654196,80.2391693 128.654196,80.2391693 L131.989828,62.1544382 L132.732006,58.0550152 L132.732006,45.1672332 L132.915466,45.1047503 C133.592093,44.8468664 134.196186,44.4352682 134.677791,43.9039915 L135.511699,56.8732729 L161.640815,57.7806336 L161.640815,43.1840796" id="Path" fill="#000000" opacity="0.1"></path>
                <path d="M162.655403,43.6323267 L163.5866,57.5116854 L164.58451,62.1299884 L165.346146,65.6616318 C165.346146,65.6616318 167.291931,92.8281199 166.735992,94.1864443 C166.180054,95.5447687 167.013962,96.6314283 167.130709,97.3540568 C167.247456,98.0766854 167.013962,99.8914068 167.105691,100.706401 C167.197421,101.521396 167.105691,101.88271 164.976447,101.592029 C162.847202,101.301348 159.878489,100.796051 159.878489,100.796051 C159.878489,100.796051 152.373318,101.339381 149.779864,100.434737 C147.18641,99.5300925 142.274692,99.5273759 142.274692,99.5273759 C142.274692,99.5273759 134.861251,99.7093914 132.454037,99.4377265 C130.046822,99.1660616 128.745926,102.336391 127.17262,101.42903 C125.599313,100.521669 129.023895,91.7414604 130.135772,89.2041104 C131.24765,86.6667604 128.654196,80.2391693 128.654196,80.2391693 L131.989828,62.1544382 L132.732006,58.0550152 L132.732006,45.1672332 L132.915466,45.1047503 C133.592093,44.8468664 134.196186,44.4352682 134.677791,43.9039915 L135.511699,56.8732729 L161.640815,57.7806336 L161.640815,43.1840796" id="Path" fill="#F2E9E4"></path>
                <path d="M165.239328,14.3018872 C165.081366,13.729324 164.862437,13.1348445 164.407952,12.7513094 C163.973962,12.4432502 163.472697,12.240534 162.94473,12.1595695 C161.680701,11.8309887 160.395586,11.5875246 159.09823,11.4308527 C158.912897,10.8225407 158.632375,10.2466589 158.266854,9.72412136 C155.551026,5.93260258 151.532709,2.35750721 146.804951,1.54934388 C144.330222,1.1247157 141.461974,1.5055113 139.876817,3.43414512 C139.006644,4.49434582 138.632525,5.89972814 137.754037,6.94075208 C136.060802,8.96253016 133.004109,9.211828 130.870244,10.7761034 C129.731259,11.5979645 128.905426,12.7896629 128.098991,13.9457474 C127.226046,15.1977157 126.32816,16.5017351 126.051035,17.9975222 C125.496784,20.9863567 127.494858,23.8354748 127.863434,26.8517047 C128.69481,33.5991836 121.378702,39.5850713 122.761557,46.2421454 C123.567992,50.1240689 127.195562,52.8581265 130.947839,54.2443321 C132.269727,54.7347091 133.78006,55.2223467 134.39805,56.4770545 C134.675175,57.0249618 134.722286,57.6577948 134.982784,58.2111812 C135.8585,60.0576289 138.737832,60.1288569 140.284192,58.7837444 C141.830551,57.4386319 142.318292,55.2634397 142.501194,53.233443 C143.24389,44.3683023 139.652346,35.6100035 140.070805,26.7229465 C140.195512,24.035461 140.960378,20.9863567 143.396309,19.7700024 C146.674702,18.1262804 150.618195,20.8658171 154.226367,20.3425656 C155.933801,24.4495094 156.29627,28.982174 155.262816,33.3033136 C154.689166,35.6675338 153.697058,37.960526 153.625005,40.3987137 C153.516926,44.1107859 155.542712,47.5023323 157.294144,50.7842972 C157.669953,51.3980184 157.921272,52.0782109 158.034069,52.7868986 C158.061638,53.5059476 157.926239,54.2219934 157.63778,54.8826441 C156.648442,57.5153389 154.94135,59.9590056 154.747363,62.7615516 C154.690516,63.0887003 154.76509,63.4248632 154.955207,63.6984732 C155.150459,63.8810837 155.402428,63.9930755 155.67019,64.0162594 C158.663144,64.5230737 161.251494,61.9013371 162.711945,59.2686424 C164.340225,56.360854 165.289045,53.1294748 165.48874,49.8117617 C165.790807,44.234065 163.767792,38.746773 163.892499,33.1635973 C164.036604,26.8160908 166.938106,20.4247517 165.239328,14.3018872 Z" id="Path" fill="#000000" opacity="0.1"></path>
                <path d="M165.239328,14.3018872 C165.081366,13.729324 164.862437,13.1348445 164.407952,12.7513094 C163.973962,12.4432502 163.472697,12.240534 162.94473,12.1595695 C161.680701,11.8309887 160.395586,11.5875246 159.09823,11.4308527 C158.912897,10.8225407 158.632375,10.2466589 158.266854,9.72412136 C155.551026,5.93260258 151.532709,2.35750721 146.804951,1.54934388 C144.330222,1.1247157 141.461974,1.5055113 139.876817,3.43414512 C139.006644,4.49434582 138.632525,5.89972814 137.754037,6.94075208 C136.060802,8.96253016 133.004109,9.211828 130.870244,10.7761034 C129.731259,11.5979645 128.905426,12.7896629 128.098991,13.9457474 C127.226046,15.1977157 126.32816,16.5017351 126.051035,17.9975222 C125.496784,20.9863567 127.494858,23.8354748 127.863434,26.8517047 C128.69481,33.5991836 121.378702,39.5850713 122.761557,46.2421454 C123.567992,50.1240689 127.195562,52.8581265 130.947839,54.2443321 C132.269727,54.7347091 133.78006,55.2223467 134.39805,56.4770545 C134.675175,57.0249618 134.722286,57.6577948 134.982784,58.2111812 C135.8585,60.0576289 138.737832,60.1288569 140.284192,58.7837444 C141.830551,57.4386319 142.318292,55.2634397 142.501194,53.233443 C143.24389,44.3683023 139.652346,35.6100035 140.070805,26.7229465 C140.195512,24.035461 140.960378,20.9863567 143.396309,19.7700024 C146.674702,18.1262804 150.618195,20.8658171 154.226367,20.3425656 C155.933801,24.4495094 156.29627,28.982174 155.262816,33.3033136 C154.689166,35.6675338 153.697058,37.960526 153.625005,40.3987137 C153.516926,44.1107859 155.542712,47.5023323 157.294144,50.7842972 C157.669953,51.3980184 157.921272,52.0782109 158.034069,52.7868986 C158.061638,53.5059476 157.926239,54.2219934 157.63778,54.8826441 C156.648442,57.5153389 154.94135,59.9590056 154.747363,62.7615516 C154.690516,63.0887003 154.76509,63.4248632 154.955207,63.6984732 C155.150459,63.8810837 155.402428,63.9930755 155.67019,64.0162594 C158.663144,64.5230737 161.251494,61.9013371 162.711945,59.2686424 C164.340225,56.360854 165.289045,53.1294748 165.48874,49.8117617 C165.790807,44.234065 163.767792,38.746773 163.892499,33.1635973 C164.036604,26.8160908 166.938106,20.4247517 165.239328,14.3018872 Z" id="Path" fill="#1E1E24"></path>
                <polygon id="Path" fill="#C3C7D9" points="158.80597 134.763572 169.950249 135.124378 168.351788 126.766169 159.814489 127.587217"></polygon>
                <path d="M191.889224,115.838284 C191.167881,116.747948 188.377068,118.386983 188.106902,118.933327 C187.836736,119.479672 184.505591,121.118707 182.792739,121.391879 C181.079888,121.665051 175.679273,122.850619 174.687764,123.487111 C173.977228,123.946041 168.274027,125.399318 164.526826,126.205176 C163.511866,126.447968 162.484627,126.63491 161.449637,126.76518 C159.828642,126.855327 142.089552,120.755387 142.089552,120.755387 L145.509852,117.204146 L145.698968,117.138585 C146.666162,116.808046 151.134705,115.281013 153.614827,114.554374 C156.408342,113.734857 159.650333,110.366642 159.650333,110.366642 C159.650333,110.366642 164.421461,108.727607 165.05365,108.544582 C165.685838,108.361556 163.432654,102.17147 163.432654,102.17147 C163.432654,102.17147 173.788112,100.718193 177.840599,99.4861854 C181.893087,98.254178 191.259737,98.7103759 192.969887,103.537332 C194.680037,108.364288 192.621373,114.92862 191.889224,115.838284 Z" id="Path" fill="#1E1E24"></path>
                <path d="M144.875622,131.933902 C144.875622,131.933902 142.732922,134.050367 140.587424,133.875759 C138.441927,133.70115 130.939679,134.404875 130.939679,134.404875 C129.580116,134.917779 128.306996,135.615632 127.160583,136.476365 C125.406701,137.783282 124.475214,136.740923 124.301784,136.518694 L124.271014,136.476365 C123.33673,139.25687 121.19403,137.13776 121.19403,137.13776 C121.19403,137.13776 122.125517,128.671901 121.840197,127.613668 C121.554876,126.555436 123.68359,124.737922 123.68359,124.737922 L126.201123,124.132084 L132.578873,122.587065 L141.717517,125.584508 L144.875622,131.933902 Z" id="Path" fill="#F2E9E4"></path>
                <path d="M126.766169,123.9801 L124.660237,136.503342 L124.625919,136.460546 C123.583872,139.271722 121.19403,137.129237 121.19403,137.129237 C121.19403,137.129237 122.232956,128.569994 121.914726,127.500088 C121.596497,126.430183 123.97074,124.59262 123.97074,124.59262 L126.766169,123.9801 Z" id="Path" fill="#000000" opacity="0.1"></path>
                <path d="M140.696517,86.3681592 C140.696517,86.3681592 145.169426,89.5024876 149.054726,86.3681592" id="Path" fill="#000000" opacity="0.1"></path>
                <path d="M156.0199,90.3240219 C156.0199,90.3240219 158.376272,91.3286101 160.199005,90.3240219" id="Path" fill="#000000" opacity="0.1"></path>
                <path d="M156.0199,92.1147599 C156.0199,92.1147599 159.532399,92.567648 160.199005,91.6536374" id="Path" fill="#000000" opacity="0.1"></path>
                <path d="M154.626866,97.5124378 C154.626866,97.5124378 161.322684,96.9154229 162.985075,96.119403" id="Path" fill="#000000" opacity="0.1"></path>
                <path d="M136.517413,96.119403 C136.517413,96.119403 139.712729,97.5758588 142.089552,97.5102884" id="Path" fill="#000000" opacity="0.1"></path>
                <path d="M164.355142,126.197971 C163.347948,126.443881 162.328569,126.633224 161.301499,126.765167 C159.692907,126.856472 142.089552,120.678183 142.089552,120.678183 L145.483681,117.081329 L145.67135,117.014925 C146.207547,117.405046 146.647229,117.73983 146.960904,117.994376 C148.438127,119.195172 149.864412,117.626391 150.400609,117.626391 C150.936807,117.626391 155.582956,121.591231 155.582956,121.591231 C155.582956,121.591231 159.872533,122.60665 160.588357,123.527998 C161.30418,124.449346 163.80554,124.266737 164.250584,124.911404 C164.384633,125.110614 164.400719,125.60034 164.355142,126.197971 Z" id="Path" fill="#000000" opacity="0.1"></path>
                <path d="M131.01879,103.496805 C131.01879,103.496805 126.640822,103.748143 124.11632,102.68604 C121.591817,101.623936 113.203868,99.1727206 110.768657,100.894247 C108.333446,102.615773 102.469999,104.137311 105.175789,110.98558 C107.881579,117.833849 109.145183,118.012218 109.145183,118.012218 C109.982366,118.639287 110.713226,119.396647 111.309815,120.255337 C112.121552,121.517429 119.697764,124.398351 121.591817,124.398351 C123.485871,124.398351 126.82211,124.398351 131.511244,127.641414 C136.200378,130.884478 140.440352,131.24662 140.440352,131.24662 C140.440352,131.24662 146.39309,133.678918 148.246556,134.219428 C150.100022,134.759939 158.569145,137.10035 160.555195,136.381471 C162.541245,135.662592 163.802144,131.154733 163.802144,131.154733 C163.802144,131.154733 164.703172,127.100904 164.251305,126.471209 C163.799438,125.841514 161.274936,126.019882 160.555195,125.119932 C159.835455,124.219982 155.503485,123.228145 155.503485,123.228145 C155.503485,123.228145 150.825174,119.352684 150.284016,119.352684 C149.742858,119.352684 148.303378,120.882329 146.812487,119.712124 C143.842635,117.515063 140.722449,115.528335 137.474806,113.766507 C134.049275,111.963904 131.01879,103.496805 131.01879,103.496805 Z" id="Path" fill="#1E1E24"></path>
                <path d="M122.587065,105.979368 C124.172501,105.643984 125.818257,106.094181 127.036848,107.196606 C129.208799,109.071659 136.517413,112.835821 136.517413,112.835821" id="Path" fill="#000000" opacity="0.1"></path>
                <path d="M176.915423,104.477612 C176.915423,104.477612 167.524532,106.250366 165.771144,108.656716" id="Path" fill="#000000" opacity="0.1"></path>
                <path d="M188.261426,135.001644 L187.828527,135.001644 C186.273398,134.946413 181.00416,134.780722 179.989466,135.001644 C178.795547,135.277796 162.985075,135.001644 162.985075,135.001644 L166.07603,134.358209 C166.07603,134.358209 164.928985,130.331909 165.656918,129.997764 C165.656918,129.997764 161.520938,127.26938 164.639467,125.427444 C167.757995,123.585509 171.119168,124.361496 171.119168,124.361496 L178.9472,121.704912 L180.449939,121.19403 C180.449939,121.19403 189.273363,121.655204 191.661202,127.730554 C194.049041,133.805904 188.261426,135.001644 188.261426,135.001644 Z" id="Path" fill="#F2E9E4"></path>
                <path d="M188.487141,135.124378 L188.078808,135.124378 C190.500193,132.982535 195.977569,126.462184 179.701493,121.709969 L181.118952,121.19403 C181.118952,121.19403 189.44165,121.659769 191.69398,127.795258 C193.946311,133.930747 188.487141,135.124378 188.487141,135.124378 Z" id="Path" fill="#000000" opacity="0.1"></path>
                <circle id="Oval" fill="#4B4B5B" cx="172.039801" cy="127.462687" r="1"></circle>
                <circle id="Oval" fill="#4B4B5B" cx="169.253731" cy="128.855721" r="1"></circle>
                <path d="M165.771144,130.290359 C165.771144,130.290359 172.486899,133.196173 176.915423,126.766169" id="Path" stroke="#000000" opacity="0.1"></path>
                <path d="M167.164179,135.124378 C167.164179,135.124378 172.67793,132.058084 179.701493,135.023993" id="Path" stroke="#000000" opacity="0.1"></path>
                <path d="M129.552239,135.124378 C129.552239,135.124378 131.829365,129.808922 137.910448,133.862025" id="Path" stroke="#000000" opacity="0.1"></path>
                <path d="M121.19403,55.6369013 L126.090437,51.1491484 C126.090437,51.1491484 145.07577,49.8869679 145.861408,56.4306726 C145.861408,56.4306726 152.591892,48.6724698 166.747211,50.4002546 L172.736318,55.2358084 L156.182591,62.6013329 L140.096373,68.2587065 L128.248175,62.8818175 L121.19403,55.6369013 Z" id="Path" fill="#000000" opacity="0.1"></path>
                <path d="M121.19403,55.6369013 L126.090437,51.1491484 C126.090437,51.1491484 145.07577,49.8869679 145.861408,56.4306726 C145.861408,56.4306726 152.591892,48.6724698 166.747211,50.4002546 L172.736318,55.2358084 L156.182591,62.6013329 L140.096373,68.2587065 L128.248175,62.8818175 L121.19403,55.6369013 Z" id="Path" fill="#D5D6DB"></path>
                <polygon id="Path" fill="#000000" opacity="0.1" points="119.800995 55.721393 121.962553 81.060987 144.875622 82.1890547 143.881802 56.9576687 143.862478 56.5329526"></polygon>
                <polygon id="Path" fill="#303C6C" points="119.800995 55.721393 121.962553 81.060987 144.875622 82.1890547 143.881802 56.9576687 143.862478 56.5329526"></polygon>
                <polygon id="Path" fill="#000000" opacity="0.1" points="174.129353 55.721393 150.447761 59.2341389 150.447761 84.9751244 173.590004 81.6675623"></polygon>
                <polygon id="Path" fill="#303C6C" points="174.129353 55.721393 150.447761 59.2341389 150.447761 84.9751244 173.590004 81.6675623"></polygon>
                <polygon id="Path" fill="#FFFFFF" opacity="0.3" points="168.557214 61.2935323 156.0199 62.6639054 156.293688 66.8656716 168.549082 65.5486205"></polygon>
                <path d="M123.146301,95.6955156 L124.456904,99.2279146 C124.456904,99.2279146 126.404721,100.900716 128.536189,100.064315 C130.667657,99.2279146 132.526431,98.8125022 133.453036,97.9984055 C134.37964,97.1843089 135.679112,93.0943094 135.679112,93.0943094 C135.679112,93.0943094 136.978585,88.6335057 138.275274,87.5183048 C139.571964,86.4031038 143.005687,71.038423 138.275274,72.5411563 C133.544861,74.0438895 129.927487,87.9839012 129.927487,87.9839012 C129.927487,87.9839012 129.092708,89.00431 127.887844,89.0991021 C126.68298,89.1938942 124.27047,88.9123059 123.805776,89.9355028 C123.341083,90.9586997 121.755003,93.6519099 123.146301,95.6955156 Z" id="Path" fill="#F5DDC3"></path>
                <path d="M150.447761,58.8468713 C147.982072,59.401209 145.398893,58.7586965 143.482587,57.1144279 L144.483952,82.92396 C144.483952,82.92396 146.841737,85.4700429 150.447761,84.8888718 L150.447761,58.8468713 Z" id="Path" fill="#000000" opacity="0.1"></path>
                <path d="M150.447761,58.8468713 C147.982072,59.401209 145.398893,58.7586965 143.482587,57.1144279 L144.483952,82.92396 C144.483952,82.92396 146.841737,85.4700429 150.447761,84.8888718 L150.447761,58.8468713 Z" id="Path" fill="#303C6C"></path>
                <path d="M150.447761,58.8468713 C147.982072,59.401209 145.398893,58.7586965 143.482587,57.1144279 L144.483952,82.92396 C144.483952,82.92396 146.841737,85.4700429 150.447761,84.8888718 L150.447761,58.8468713 Z" id="Path" fill="#000000" opacity="0.1"></path>
                <path d="M150.447761,55.721393 C150.447761,55.721393 160.392526,52.5291022 162.985075,52.9787206" id="Path" fill="#000000" opacity="0.1"></path>
                <path d="M140.696517,54.3283582 C140.696517,54.3283582 131.147511,52.51201 129.552239,53.0273988" id="Path" fill="#000000" opacity="0.1"></path>
                <path d="M157.412935,55.721393 C157.412935,55.721393 163.551778,53.5873842 165.771144,54.601913" id="Path" fill="#000000" opacity="0.1"></path>
                <path d="M153.233831,114.228856 C154.292992,113.582332 155.42042,113.013201 156.60294,112.528113 C158.363799,111.838751 161.59204,110.049751 161.59204,110.049751" id="Path" fill="#000000" opacity="0.1"></path>
                <path d="M129.552239,86.3681592 C129.552239,86.3681592 125.653342,89.9297266 124.481806,90.2426677 C123.310269,90.5556088 122.587065,93.3333333 122.587065,93.3333333" id="Path" fill="#000000" opacity="0.1"></path>
                <path d="M172.174522,94.2941168 L170.877254,97.8348797 C170.877254,97.8348797 168.928569,99.5076811 166.793367,98.6712804 C164.658164,97.8348797 162.80413,97.4194674 161.874328,96.6053707 C160.944527,95.791274 159.647259,91.7012746 159.647259,91.7012746 C159.647259,91.7012746 158.349992,87.2404709 157.04994,86.12527 C155.749889,85.010069 152.317419,69.6453882 157.04994,71.1481214 C161.782462,72.6508547 165.401449,86.5908663 165.401449,86.5908663 C165.401449,86.5908663 166.2366,87.6112752 167.442001,87.7060673 C168.647402,87.8008594 171.060988,87.5192711 171.525888,88.542468 C171.990789,89.5656648 173.56644,92.2588751 172.174522,94.2941168 Z" id="Path" fill="#F5DDC3"></path>
                <path d="M168.557214,87.761194 C168.557214,87.761194 171.354965,89.6647327 171.343247,91.9402985" id="Path" fill="#000000" opacity="0.1"></path>
                <circle id="Oval" fill="#F5DDC3" cx="147.661692" cy="26.4676617" r="12.5373134"></circle>
                <path d="M139.830499,23.6430498 C141.325025,23.4174634 142.634804,22.5814668 144.063153,22.1011006 C147.259013,21.0209399 150.794037,21.761394 154.028501,22.7353964 C155.269344,23.1096044 156.529489,23.5315836 157.830996,23.5315836 C159.132502,23.5315836 160.513974,23.0193698 161.178515,21.9392092 C161.790664,20.9466291 161.672095,19.6568058 161.156455,18.6138006 C160.640816,17.5707953 159.777741,16.7321448 158.906393,15.9412655 C156.038667,13.3350793 152.481584,10.8987465 148.546732,11.1641422 C146.963968,11.2729544 145.450139,11.8170157 143.994217,12.419464 C142.160978,13.1798227 140.376508,14.0447803 138.650319,15.0097264 C137.323996,15.7501805 134.867127,16.7401066 134.103319,18.0936249 C132.366138,21.1430219 137.128218,24.0517592 139.830499,23.6430498 Z" id="Path" fill="#1E1E24"></path>
                <path d="M161.177011,21.3900363 C160.512534,22.3600267 159.131194,22.8199975 157.829812,22.8199975 C156.52843,22.8199975 155.268406,22.4553574 154.024924,22.1193165 C150.790769,21.2446569 147.25884,20.5773417 144.060529,21.5497153 C142.635074,21.981087 141.322663,22.7413497 139.82828,22.9320112 C137.650119,23.2275365 134.143005,21.5878476 133.762516,19.5024876 C133.335155,21.9119722 137.401974,23.9758828 139.82828,23.6469917 C141.322663,23.4444139 142.635074,22.6936843 144.060529,22.2646959 C147.25884,21.2923223 150.790769,21.9596375 154.024924,22.8342971 C155.268406,23.170338 156.525673,23.5492777 157.829812,23.5349781 C159.133952,23.5206785 160.512534,23.0773905 161.177011,22.1050169 C161.521443,21.5760332 161.656959,20.9644031 161.563014,20.3628475 C161.519999,20.7250173 161.388425,21.0751488 161.177011,21.3900363 Z" id="Path" fill="#000000" opacity="0.1"></path>
                <path d="M259.531121,169.950249 C259.531121,169.950249 261.204793,172.183138 258.757789,175.556962 C256.310786,178.930786 254.295606,181.777359 255.108452,183.880597 C255.108452,183.880597 258.800125,177.616982 261.803137,177.527667 C264.80615,177.438351 262.830484,173.715909 259.531121,169.950249 Z" id="Path" fill="#8ED081"></path>
                <path d="M259.487712,169.950249 C259.635145,170.165753 259.75146,170.401287 259.83317,170.649789 C262.796692,174.161883 264.378379,177.440798 261.526203,177.521403 C258.871025,177.59913 255.687666,182.386518 254.925373,183.59272 C254.949756,183.690204 254.979301,183.7863 255.013879,183.880597 C255.013879,183.880597 258.748259,177.62216 261.786011,177.532918 C264.823764,177.443676 262.825242,173.712796 259.487712,169.950249 Z" id="Path" fill="#000000" opacity="0.1"></path>
                <path d="M263.47107,173.099874 C263.47107,173.668797 263.386221,174.129353 263.284951,174.129353 C263.18368,174.129353 263.096094,173.668797 263.096094,173.099874 C263.096094,172.530951 263.200102,172.799783 263.30411,172.799783 C263.408118,172.799783 263.47107,172.530951 263.47107,173.099874 Z" id="Path" fill="#FFD037"></path>
                <path d="M264.345788,173.449309 C263.802462,173.931083 263.327337,174.223854 263.286417,174.101558 C263.245497,173.979261 263.652423,173.486368 264.195748,172.989769 C264.739074,172.493171 264.525381,172.856355 264.566301,172.989769 C264.607221,173.123184 264.891387,172.963828 264.345788,173.449309 Z" id="Path" fill="#FFD037"></path>
                <path d="M251.714154,169.950249 C251.714154,169.950249 250.040404,172.183138 252.487522,175.556962 C254.93464,178.930786 256.949914,181.777359 256.134208,183.880597 C256.134208,183.880597 252.445184,177.616982 249.439209,177.527667 C246.433233,177.438351 248.423104,173.715909 251.714154,169.950249 Z" id="Path" fill="#8ED081"></path>
                <path d="M251.756797,169.950249 C251.609388,170.165753 251.493091,170.401287 251.411394,170.649789 C248.448345,174.161883 246.86691,177.440798 249.718631,177.521403 C252.370531,177.59913 255.556236,182.386518 256.318408,183.59272 C256.294473,183.690659 256.263953,183.78684 256.227062,183.880597 C256.227062,183.880597 252.496132,177.62216 249.45601,177.532918 C246.415887,177.443676 248.428363,173.712796 251.756797,169.950249 Z" id="Path" fill="#000000" opacity="0.1"></path>
                <path d="M247.772711,173.099874 C247.772711,173.668797 247.854823,174.129353 247.95883,174.129353 C248.062838,174.129353 248.147687,173.668797 248.147687,173.099874 C248.147687,172.530951 248.040942,172.799783 247.939671,172.799783 C247.8384,172.799783 247.772711,172.530951 247.772711,173.099874 Z" id="Path" fill="#FFD037"></path>
                <path d="M246.897993,173.449309 C247.441319,173.931083 247.916444,174.223854 247.957364,174.101558 C247.998284,173.979261 247.591358,173.486368 247.048033,172.989769 C246.504707,172.493171 246.7184,172.856355 246.67748,172.989769 C246.63656,173.123184 246.352394,172.963828 246.897993,173.449309 Z" id="Path" fill="#FFD037"></path>
                <ellipse id="Oval" fill="#303C6C" opacity="0.1" cx="254.925373" cy="196.41791" rx="16.7164179" ry="2.78606965"></ellipse>
                <path d="M264.672881,179.329106 L264.587801,180.011417 L264.468688,180.975676 L264.420476,181.37886 L264.301363,182.343119 L264.250315,182.746303 L264.134039,183.707742 L262.786933,194.675478 C262.66782,195.653834 261.059801,196.41791 259.117133,196.41791 L252.126363,196.41791 C250.183694,196.41791 248.578511,195.653834 248.456563,194.675478 L247.109457,183.707742 L246.990345,182.746303 L246.942132,182.343119 L246.82302,181.37886 L246.771972,180.975676 L246.655695,180.011417 L246.570615,179.329106 C246.505386,178.765212 247.373206,178.308458 248.473579,178.308458 L262.772753,178.308458 C263.870289,178.308458 264.740945,178.77367 264.672881,179.329106 Z" id="Path" fill="#EFC69B"></path>
            </g>
        </g>
    </g>
</svg>