<?xml version="1.0" encoding="UTF-8"?>
<svg width="20px" height="20px" viewBox="0 0 20 20" version="1.1" xmlns="http://www.w3.org/2000/svg" xmlns:xlink="http://www.w3.org/1999/xlink">
    <!-- Generator: Sketch 52.2 (67145) - http://www.bohemiancoding.com/sketch -->
    <title>Shape</title>
    <desc>Created with Sketch.</desc>
    <g id="Symbols" stroke="none" stroke-width="1" fill="none" fill-rule="evenodd">
        <g id="Scan-icon" transform="translate(-10.000000, -10.000000)" fill="#424D79" fill-rule="nonzero">
            <path d="M11.875,10 L28.125,10 C29.1605339,10 30,10.8394661 30,11.875 L30,28.125 C30,29.1605339 29.1605339,30 28.125,30 L11.875,30 C10.8394661,30 10,29.1605339 10,28.125 L10,11.875 C10,10.8394661 10.8394661,10 11.875,10 Z M11.6428571,11 C11.2878169,11 11,11.2878169 11,11.6428571 L11,28.3571429 C11,28.712183 11.2878169,29 11.6428571,29 L28.3571429,29 C28.712183,29 29,28.712183 29,28.3571429 L29,11.6428571 C29,11.2878169 28.712183,11 28.3571429,11 L11.6428571,11 Z M13,26.4 L13,24.3 C13,24.1343146 13.1343146,24 13.3,24 C13.4656854,24 13.6,24.1343146 13.6,24.3 L13.6,26.25 C13.6,26.3328427 13.6671573,26.4 13.75,26.4 L15.7,26.4 C15.8656854,26.4 16,26.5343146 16,26.7 C16,26.8656854 15.8656854,27 15.7,27 L13.6,27 C13.2686291,27 13,26.7313708 13,26.4 Z M26.4,27 L24.3,27 C24.1343146,27 24,26.8656854 24,26.7 C24,26.5343146 24.1343146,26.4 24.3,26.4 L26.25,26.4 C26.3328427,26.4 26.4,26.3328427 26.4,26.25 L26.4,24.3 C26.4,24.1343146 26.5343146,24 26.7,24 C26.8656854,24 27,24.1343146 27,24.3 L27,26.4 C27,26.7313708 26.7313708,27 26.4,27 Z M27,13.6 L27,15.7 C27,15.8656854 26.8656854,16 26.7,16 C26.5343146,16 26.4,15.8656854 26.4,15.7 L26.4,13.75 C26.4,13.6671573 26.3328427,13.6 26.25,13.6 L24.3,13.6 C24.1343146,13.6 24,13.4656854 24,13.3 C24,13.1343146 24.1343146,13 24.3,13 L26.4,13 C26.7313708,13 27,13.2686291 27,13.6 Z M13.6,13 L15.7,13 C15.8656854,13 16,13.1343146 16,13.3 C16,13.4656854 15.8656854,13.6 15.7,13.6 L13.75,13.6 C13.6671573,13.6 13.6,13.6671573 13.6,13.75 L13.6,15.7 C13.6,15.8656854 13.4656854,16 13.3,16 C13.1343146,16 13,15.8656854 13,15.7 L13,13.6 C13,13.2686291 13.2686291,13 13.6,13 Z" id="Shape"></path>
        </g>
    </g>
</svg>